<?xml version="1.0" encoding="utf-8"?>
<!-- Generator: Adobe Illustrator 22.0.1, SVG Export Plug-In . SVG Version: 6.00 Build 0)  -->
<svg version="1.1" id="Camada_1" xmlns="http://www.w3.org/2000/svg" xmlns:xlink="http://www.w3.org/1999/xlink" x="0px" y="0px"
	 viewBox="0 0 200 79.4" style="enable-background:new 0 0 200 79.4;" xml:space="preserve">
<style type="text/css">
	.st0{fill:#FFFFFF;}
</style>
<g>
	<g>
		<g>
			<path class="st0" d="M1.6,79.4c-1.8,0-2.1-1.2-0.9-2.8c1.1-1.5,3.3-2.8,4.9-2.8c1,0,1.4,0.3,1.6,0.7c-0.5,0.3-0.7,0.4-1.1,0.7
				c-0.2-0.4-0.4-0.6-1.1-0.6c-1,0-2.4,0.9-3.2,1.9c-0.8,1.1-0.6,1.9,0.5,1.9c0.5,0,1.1-0.2,1.7-0.4c0.3-0.4,0.4-0.6,0.7-1
				c-0.6,0-0.9,0-1.4,0c0.2-0.3,0.4-0.5,0.6-0.8c1,0,1.4,0,2.4,0c-0.6,0.9-1,1.4-1.6,2.3C3.7,79.1,2.6,79.4,1.6,79.4z"/>
			<path class="st0" d="M16.3,79.4c-1.8,0-2.2-1.3-1.2-2.8c1-1.5,3-2.8,4.7-2.8c1.7,0,2.1,1.3,1.2,2.8
				C20.1,78.2,18.1,79.4,16.3,79.4z M19.2,74.7c-1.1,0-2.4,0.9-3.1,1.9c-0.7,1.1-0.4,1.9,0.7,1.9c1.1,0,2.4-0.9,3.1-1.9
				C20.6,75.6,20.3,74.7,19.2,74.7z"/>
			<path class="st0" d="M35.2,73.9c0.4,0,0.6,0,1,0c-1.7,1.8-3.3,3.7-5,5.5c-0.4,0-0.5,0-0.9,0c0.2-2.2,0.2-3.3,0.5-5.5
				c0.4,0,0.6,0,1.1,0c-0.2,1.7-0.3,2.5-0.4,4.2C33,76.4,33.7,75.6,35.2,73.9z"/>
			<path class="st0" d="M48.9,74.8c-1.3,0-1.9,0-3.1,0c-0.2,0.6-0.3,0.8-0.6,1.4c1.1,0,1.7,0,2.8,0c-0.1,0.3-0.2,0.5-0.3,0.9
				c-1.1,0-1.7,0-2.8,0c-0.2,0.6-0.4,0.9-0.6,1.5c1.3,0,2,0,3.3,0c-0.1,0.3-0.2,0.5-0.3,0.9c-1.7,0-2.6,0-4.3,0
				c0.9-2.2,1.4-3.3,2.3-5.4c1.6,0,2.5,0,4.1,0C49.1,74.3,49,74.4,48.9,74.8z"/>
			<path class="st0" d="M60.3,79.3c-0.3-0.8-0.5-1.1-0.9-1.9c-0.5,0-0.7,0-1.2,0c-0.2,0.8-0.3,1.1-0.6,1.9c-0.4,0-0.6,0-1,0
				c0.7-2.2,1-3.3,1.7-5.4c1,0,1.5,0,2.5,0c1.3,0,1.9,0.7,1.6,1.7c-0.3,0.9-1,1.4-1.8,1.7c0.4,0.8,0.6,1.2,1,2.1
				C61,79.3,60.8,79.3,60.3,79.3z M60.4,74.8c-0.6,0-0.9,0-1.4,0c-0.2,0.7-0.3,1.1-0.6,1.8c0.6,0,0.9,0,1.5,0c0.7,0,1.3-0.4,1.4-0.9
				C61.5,75.1,61.1,74.8,60.4,74.8z"/>
			<path class="st0" d="M75.8,73.9c0.4,0,0.6,0,1,0c-0.4,2.2-0.6,3.3-0.9,5.4c-0.3,0-0.5,0-0.8,0c-1-1.5-1.5-2.3-2.4-3.9
				c-0.3,1.5-0.5,2.3-0.8,3.9c-0.4,0-0.6,0-1,0c0.5-2.2,0.7-3.3,1.1-5.4c0.4,0,0.5,0,0.9,0c0.9,1.5,1.3,2.3,2.3,3.8
				C75.3,76.2,75.5,75.4,75.8,73.9z"/>
			<path class="st0" d="M88.2,79.4c-1.8,0-2.9-1.3-2.7-2.8c0.2-1.5,1.5-2.8,3.2-2.8c1.7,0,2.8,1.3,2.7,2.8
				C91.3,78.2,90,79.4,88.2,79.4z M88.6,74.7c-1.1,0-2,0.9-2.1,1.9c-0.1,1.1,0.6,1.9,1.8,1.9c1.1,0,2-0.9,2.1-1.9
				C90.4,75.6,89.7,74.7,88.6,74.7z"/>
			<path class="st0" d="M115.1,74.8c-1.3,0-1.9,0-3.2,0c0.1,0.6,0.1,0.9,0.1,1.5c1.1,0,1.7,0,2.8,0c0,0.3,0.1,0.5,0.1,0.9
				c-1.1,0-1.7,0-2.9,0c0.1,0.9,0.1,1.3,0.2,2.2c-0.4,0-0.6,0-1,0c-0.2-2.2-0.3-3.3-0.5-5.4c1.6,0,2.5,0,4.1,0
				C115,74.3,115.1,74.4,115.1,74.8z"/>
			<path class="st0" d="M128.2,74.8c-1.3,0-1.9,0-3.1,0c0.1,0.6,0.2,0.8,0.3,1.4c1.1,0,1.7,0,2.8,0c0.1,0.3,0.1,0.5,0.2,0.9
				c-1.1,0-1.7,0-2.8,0c0.1,0.6,0.2,0.9,0.3,1.5c1.3,0,2,0,3.3,0c0.1,0.3,0.1,0.5,0.2,0.9c-1.7,0-2.6,0-4.3,0
				c-0.4-2.2-0.6-3.3-1-5.4c1.6,0,2.5,0,4.1,0C128.1,74.3,128.2,74.4,128.2,74.8z"/>
			<path class="st0" d="M140.9,79.3c-0.9,0-1.3,0-2.1,0c-0.6-2.2-0.9-3.3-1.6-5.4c0.8,0,1.2,0,2.1,0c1.7,0,3.3,1.2,3.8,2.7
				S142.7,79.3,140.9,79.3z M139.5,74.8c-0.4,0-0.7,0-1.1,0c0.4,1.5,0.7,2.2,1.1,3.7c0.5,0,0.7,0,1.1,0c1.2,0,1.7-0.8,1.4-1.8
				C141.6,75.6,140.6,74.8,139.5,74.8z"/>
			<path class="st0" d="M155.7,74.8c-1.3,0-1.9,0-3.1,0c0.2,0.6,0.3,0.8,0.6,1.4c1.1,0,1.7,0,2.8,0c0.1,0.3,0.2,0.5,0.4,0.9
				c-1.1,0-1.7,0-2.8,0c0.2,0.6,0.4,0.9,0.6,1.5c1.3,0,2,0,3.3,0c0.1,0.3,0.2,0.5,0.4,0.9c-1.7,0-2.6,0-4.3,0
				c-0.9-2.2-1.3-3.3-2.2-5.4c1.6,0,2.5,0,4.1,0C155.4,74.3,155.5,74.4,155.7,74.8z"/>
			<path class="st0" d="M170.8,79.3c-1-0.8-1.4-1.1-2.4-1.9c-0.5,0-0.7,0-1.2,0c0.4,0.8,0.6,1.1,1,1.9c-0.4,0-0.6,0-1,0
				c-1.1-2.2-1.6-3.3-2.7-5.4c1,0,1.5,0,2.5,0c1.3,0,2.4,0.7,3,1.7c0.5,0.9,0.2,1.4-0.5,1.7c1,0.8,1.6,1.2,2.6,2.1
				C171.5,79.3,171.3,79.3,170.8,79.3z M167.2,74.8c-0.6,0-0.9,0-1.4,0c0.4,0.7,0.6,1.1,0.9,1.8c0.6,0,0.9,0,1.5,0
				c0.7,0,1-0.4,0.7-0.9C168.5,75.1,167.9,74.8,167.2,74.8z"/>
			<path class="st0" d="M186.8,79.3c-0.4,0-0.6,0-1.1,0c-0.6-0.5-0.8-0.8-1.4-1.3c-1.1,0-1.6,0-2.7,0c0.1,0.5,0.1,0.8,0.2,1.3
				c-0.4,0-0.6,0-1,0c-0.3-2.2-0.5-3.3-0.8-5.5c0.4,0,0.5,0,0.9,0C182.8,75.7,184.8,77.5,186.8,79.3z M181.1,75
				c0.2,0.9,0.2,1.3,0.4,2.2c0.8,0,1.2,0,1.9,0C182.4,76.3,182,75.9,181.1,75z"/>
			<path class="st0" d="M192.1,73.9c0.4,0,0.6,0,1,0c1.3,1.8,2,2.7,3.3,4.6c1.2,0,1.8,0,3,0c0.3,0.3,0.4,0.5,0.6,0.9
				c-1.6,0-2.4,0-4,0C194.4,77.2,193.6,76.1,192.1,73.9z"/>
		</g>
	</g>
	<g>
		<polygon class="st0" points="161.1,39.7 172.4,60 189.9,60 197.1,70.4 164.7,70.4 150.6,39.7 		"/>
		<path class="st0" d="M148.7,39.7h-10.5l0.9,2.7c-1.1-0.5-2.2-1-3.4-1.4c-1.1-0.4-2.3-0.7-3.6-1c-1.2-0.3-2.5-0.5-3.8-0.6
			c-1.3-0.1-2.7-0.2-4.2-0.2c-0.8,0-1.5,0-2.2,0.1c-2.2,4.4-5.6,8.2-9.7,10.8c0.3,0.6,0.6,1.1,1,1.6c0.9,1.1,2.1,2,3.6,2.7
			c1.5,0.7,3.2,1.3,5.1,1.8c1.9,0.5,4,0.9,6.1,1.3c1,0.2,1.9,0.3,2.6,0.5c0.7,0.2,1.3,0.3,1.7,0.5c0.4,0.2,0.8,0.4,1,0.6
			c0.2,0.2,0.4,0.4,0.4,0.7c0.1,0.2,0.1,0.4,0,0.6c-0.1,0.2-0.2,0.3-0.5,0.5c-0.2,0.1-0.5,0.2-0.9,0.3c-0.4,0.1-0.9,0.1-1.4,0.1
			c-1.1,0-2.2-0.1-3.4-0.2c-1.2-0.2-2.3-0.4-3.5-0.7c-1.2-0.3-2.3-0.7-3.5-1.2c-1.1-0.5-2.3-1.1-3.4-1.7l-3.5,4.3l-5.3-9.4
			c-3.3,1.5-7,2.3-10.8,2.4l1,2.5h-6.7l1.3-2.7c-3.5-0.5-6.9-1.6-9.8-3.3l-8.4,13.2l-3.4-6.1c1.2-0.5,2.3-1,3.4-1.7
			c1-0.6,1.9-1.4,2.6-2.1c0.7-0.8,1.4-1.6,1.8-2.6c0.4-0.8,0.7-1.7,0.9-2.6c-3.3-2.4-6-5.6-7.9-9.2c-0.3,0-0.6-0.1-1-0.1
			c-1.1-0.1-2.4-0.2-3.8-0.2H52.3l-2,4.5c0-0.2,0-0.5,0-0.7c0-0.2-0.1-0.4-0.1-0.6c-0.1-0.2-0.1-0.4-0.2-0.5
			c-0.1-0.2-0.2-0.3-0.3-0.5c-0.3-0.4-0.7-0.7-1.2-1c-0.5-0.3-1-0.5-1.7-0.7c-0.6-0.2-1.4-0.3-2.2-0.4c-0.9-0.1-1.8-0.1-2.9-0.1
			H24.1L2.9,70.4h22.3c1.7,0,3.4-0.1,4.9-0.4c1.6-0.2,3-0.6,4.4-1.1c1.4-0.5,2.6-1,3.7-1.6c1.1-0.6,2.1-1.3,3-2.1l-2.2,5.2h13.5
			L56,60h2.7L63,70.4h8.2h7.1h7.3l2.5-5.1h13.6l2.2,5.1h14.6l-1.2-2.2c1.1,0.5,2.3,0.9,3.5,1.2c1.2,0.4,2.5,0.7,3.7,0.9
			c1.3,0.2,2.6,0.4,3.9,0.6c1.3,0.1,2.7,0.2,4,0.2c2,0,3.8-0.2,5.5-0.5c1.6-0.3,3-0.8,4.2-1.5c1.2-0.6,2.1-1.4,2.9-2.3
			c0.7-0.9,1.2-1.9,1.4-3l2.2,6.5h13.5L148.7,39.7z M33.3,58.6L33.3,58.6c-0.2,0.4-0.5,0.8-0.8,1.1c-0.3,0.3-0.7,0.6-1.2,0.8
			c-0.5,0.2-1,0.4-1.6,0.5c-0.6,0.1-1.2,0.2-1.9,0.2h-6.3l2.9-4.9h6.1c0.7,0,1.2,0.1,1.6,0.2c0.4,0.1,0.8,0.3,1,0.5
			c0.2,0.2,0.3,0.5,0.4,0.7C33.6,57.9,33.5,58.2,33.3,58.6z M37.9,48L37.9,48c-0.2,0.4-0.4,0.7-0.7,0.9c-0.3,0.2-0.6,0.4-1,0.6
			c-0.4,0.2-0.8,0.3-1.3,0.4C34.4,50,33.8,50,33.2,50h-5l2.3-3.9h4.8c0.6,0,1.1,0,1.5,0.1c0.4,0.1,0.7,0.2,0.9,0.4
			c0.2,0.2,0.3,0.4,0.4,0.6C38.1,47.4,38.1,47.7,37.9,48z M45.4,55.6c-0.2-0.4-0.4-0.7-0.7-1.1c-0.3-0.3-0.6-0.6-1-0.9
			c-0.4-0.3-0.8-0.5-1.3-0.7c-0.5-0.2-1-0.4-1.6-0.5c0.9-0.2,1.7-0.5,2.5-0.8c0.8-0.3,1.5-0.7,2.2-1c0.7-0.4,1.3-0.8,1.9-1.3
			c0.6-0.5,1.1-1,1.5-1.5L45.4,55.6z M68.9,49.5L68.9,49.5c-0.1,0.5-0.3,0.9-0.6,1.3c-0.3,0.3-0.7,0.6-1.1,0.9
			c-0.5,0.2-1,0.4-1.6,0.6c-0.6,0.1-1.2,0.2-1.9,0.2h-5.1l1.9-5.6h4.9c0.6,0,1.2,0.1,1.7,0.2c0.5,0.1,0.9,0.3,1.2,0.5
			c0.3,0.2,0.5,0.5,0.6,0.8C69,48.7,69,49.1,68.9,49.5z M140.4,52.4c-1.1-0.6-2.3-1.1-3.6-1.5c-1.3-0.4-2.7-0.8-4.2-1.1
			c-1.5-0.3-3.1-0.6-4.7-0.8c-0.9-0.1-1.7-0.3-2.3-0.4c-0.6-0.1-1.1-0.3-1.5-0.4c-0.4-0.1-0.6-0.3-0.8-0.4c-0.2-0.2-0.3-0.3-0.3-0.5
			l0-0.1c0-0.2,0-0.3,0.1-0.5c0.1-0.1,0.2-0.3,0.4-0.4c0.2-0.1,0.4-0.2,0.7-0.2c0.3-0.1,0.6-0.1,1.1-0.1c0.8,0,1.6,0.1,2.5,0.2
			c0.9,0.1,1.8,0.3,2.7,0.5c0.9,0.2,1.9,0.5,2.8,0.8c1,0.3,1.9,0.8,2.9,1.2l3.2-5.7l4,11.5C142.5,53.7,141.5,53,140.4,52.4z"/>
	</g>
	<path class="st0" d="M99.7,19.2c-14.5-5-27.8-4.6-29.7,0.9c-0.4,1.2-0.2,2.6,0.5,4.1c0-0.3,0.1-0.6,0.1-0.8c-0.3-1-0.3-2,0-2.8
		c1.8-5.3,14.8-5.6,29-0.7c14.2,4.9,24.2,13.1,22.4,18.4c-0.3,0.9-0.9,1.6-1.8,2.2c-0.1,0.2-0.3,0.5-0.4,0.7
		c1.5-0.7,2.5-1.7,2.9-2.9C124.4,32.7,114.2,24.2,99.7,19.2z"/>
	<g>
		<path class="st0" d="M74.1,13.4c0.2-0.2,0.3-0.5,0.5-0.7c0.2-0.2,0.4-0.4,0.7-0.6c0.2-0.2,0.5-0.3,0.8-0.4
			c0.3-0.1,0.5-0.1,0.7-0.1c0.2,0,0.3,0.1,0.4,0.2c0.1,0.1,0.1,0.3,0.1,0.5c0,0.2,0,0.4-0.1,0.7c-0.1,0.3-0.2,0.5-0.4,0.7
			c-0.2,0.2-0.3,0.5-0.5,0.7c-0.2,0.2-0.4,0.4-0.7,0.5c-0.2,0.2-0.5,0.3-0.8,0.4c-0.3,0.1-0.5,0.1-0.7,0.1c-0.2,0-0.3-0.1-0.4-0.2
			c-0.1-0.1-0.1-0.3-0.1-0.5c0-0.2,0-0.4,0.1-0.7C73.8,13.9,74,13.7,74.1,13.4z M74.4,14.4c0,0.1,0,0.2,0,0.3c0,0.1,0.1,0.1,0.2,0.2
			c0.1,0,0.2,0,0.4,0c0.2-0.1,0.3-0.1,0.5-0.2c0.1-0.1,0.3-0.2,0.4-0.4c0.1-0.1,0.2-0.3,0.3-0.4c0.1-0.1,0.1-0.3,0.2-0.4
			c0.1-0.2,0.1-0.3,0.1-0.4c0-0.1,0-0.2,0-0.3c0-0.1-0.1-0.1-0.2-0.2c-0.1,0-0.2,0-0.4,0c-0.2,0.1-0.3,0.1-0.5,0.2
			c-0.1,0.1-0.3,0.2-0.4,0.4c-0.1,0.1-0.2,0.3-0.3,0.4c-0.1,0.2-0.2,0.3-0.2,0.5C74.5,14.1,74.4,14.2,74.4,14.4z"/>
		<path class="st0" d="M80.1,11.2c0.2,0,0.3,0,0.4,0c0.1,0,0.2,0.1,0.3,0.2c0.1,0.1,0.1,0.2,0.1,0.3c0,0.1,0,0.2-0.1,0.4
			c-0.1,0.2-0.2,0.4-0.3,0.5c-0.1,0.2-0.3,0.3-0.6,0.4l0,0c0.1,0,0.2,0,0.2,0.1c0,0,0.1,0.1,0.1,0.2c0,0.1,0,0.1,0,0.2
			c0,0.1,0,0.2-0.1,0.3c0,0.1,0,0.1-0.1,0.2c0,0.1,0,0.1-0.1,0.2c0,0.1,0,0.1,0,0.2c0,0.1,0,0.1,0,0.2l-0.8,0.1c0-0.1,0-0.2,0.1-0.4
			c0-0.2,0.1-0.3,0.1-0.4c0-0.2,0-0.3,0-0.4c-0.1-0.1-0.2-0.1-0.4-0.1l-0.8,0.1l-0.5,1.3l-0.8,0.1l1.2-3.5L80.1,11.2z M79.2,12.8
			c0.2,0,0.3-0.1,0.5-0.2c0.1-0.1,0.2-0.2,0.3-0.4c0.1-0.2,0.1-0.3,0-0.4c-0.1-0.1-0.2-0.1-0.4-0.1l-0.9,0.1l-0.3,1L79.2,12.8z"/>
		<path class="st0" d="M83.1,11.1c0.2,0,0.4,0,0.6,0.1c0.2,0.1,0.3,0.2,0.4,0.3c0.1,0.1,0.2,0.3,0.2,0.5c0,0.2,0,0.5-0.1,0.8
			c-0.1,0.3-0.2,0.5-0.3,0.7c-0.1,0.2-0.3,0.4-0.5,0.5s-0.4,0.3-0.6,0.4c-0.2,0.1-0.5,0.1-0.8,0.1l-1.6,0l1.2-3.5L83.1,11.1z
			 M82.1,13.9c0.1,0,0.2,0,0.4,0c0.1,0,0.2-0.1,0.4-0.2c0.1-0.1,0.2-0.2,0.3-0.3c0.1-0.1,0.2-0.3,0.2-0.5c0.1-0.2,0.1-0.3,0.1-0.5
			c0-0.1,0-0.3-0.1-0.4c0-0.1-0.1-0.2-0.2-0.2c-0.1-0.1-0.3-0.1-0.5-0.1l-0.6,0l-0.7,2.2L82.1,13.9z"/>
		<path class="st0" d="M87.9,11.4l-0.2,0.6l-1.9-0.2l-0.3,0.7l1.8,0.2L87,13.4l-1.8-0.2L85,14.1l2,0.2l-0.2,0.6L84,14.6l1.2-3.5
			L87.9,11.4z"/>
		<path class="st0" d="M89.4,11.6l0,2.5l0,0l1.6-2.2l1.1,0.2L91,15.5l-0.7-0.1l0.8-2.4l0,0l-1.7,2.3l-0.6-0.1l0-2.6l0,0L87.8,15
			l-0.7-0.1l1.2-3.5L89.4,11.6z"/>
		<path class="st0" d="M96.6,13.1l-0.2,0.6l-1.9-0.5l-0.3,0.7l1.7,0.4l-0.2,0.6L94,14.7l-0.3,0.8l1.9,0.5l-0.2,0.6l-2.7-0.7l1.2-3.5
			L96.6,13.1z"/>
		<path class="st0" d="M99.7,14.1c0.2,0.1,0.4,0.2,0.5,0.3c0.1,0.1,0.2,0.2,0.3,0.4c0.1,0.1,0.1,0.3,0.1,0.4c0,0.1,0,0.3-0.1,0.4
			c0,0.1-0.1,0.3-0.2,0.4c-0.1,0.1-0.2,0.2-0.3,0.3c-0.1,0.1-0.3,0.1-0.5,0.1c-0.2,0-0.4,0-0.6-0.1l-0.8-0.3l-0.4,1.2L97,17.1
			l1.2-3.5L99.7,14.1z M99,15.7c0.1,0,0.2,0,0.3,0.1c0.1,0,0.2,0,0.2,0c0.1,0,0.1-0.1,0.2-0.1c0.1-0.1,0.1-0.1,0.1-0.2
			c0-0.1,0-0.2,0-0.3c0-0.1,0-0.1-0.1-0.2c0-0.1-0.1-0.1-0.2-0.1c-0.1,0-0.2-0.1-0.2-0.1l-0.6-0.2l-0.4,1L99,15.7z"/>
		<path class="st0" d="M103,15.2c0.2,0.1,0.3,0.1,0.4,0.2c0.1,0.1,0.2,0.2,0.2,0.3c0.1,0.1,0.1,0.2,0.1,0.4c0,0.1,0,0.3-0.1,0.4
			c-0.1,0.2-0.2,0.4-0.3,0.5c-0.1,0.1-0.3,0.2-0.5,0.2l0,0c0.1,0.1,0.1,0.1,0.2,0.2c0,0.1,0.1,0.2,0.1,0.2c0,0.1,0,0.2,0,0.3
			c0,0.1,0,0.2-0.1,0.3c0,0.1,0,0.1-0.1,0.2c0,0.1,0,0.2-0.1,0.2c0,0.1,0,0.2,0,0.2c0,0.1,0,0.1,0,0.2l-0.8-0.3c0-0.1,0-0.3,0.1-0.4
			c0-0.2,0.1-0.3,0.1-0.5c0-0.2,0-0.3,0-0.5c-0.1-0.1-0.2-0.2-0.4-0.3l-0.8-0.3l-0.5,1.3L100,18l1.2-3.5L103,15.2z M102.2,16.7
			c0.2,0.1,0.3,0.1,0.4,0c0.1,0,0.2-0.2,0.3-0.3c0.1-0.2,0.1-0.3,0-0.4c-0.1-0.1-0.2-0.2-0.4-0.3l-0.8-0.3l-0.3,1L102.2,16.7z"/>
		<path class="st0" d="M104,16.8c0.2-0.2,0.3-0.3,0.5-0.4c0.2-0.1,0.4-0.2,0.7-0.2c0.2,0,0.5,0,0.7,0.2c0.3,0.1,0.5,0.3,0.6,0.4
			c0.2,0.2,0.3,0.4,0.4,0.6c0.1,0.2,0.1,0.5,0.1,0.7c0,0.3,0,0.5-0.1,0.8c-0.1,0.3-0.2,0.5-0.4,0.7c-0.2,0.2-0.3,0.3-0.5,0.4
			c-0.2,0.1-0.4,0.2-0.6,0.2c-0.2,0-0.5,0-0.7-0.2c-0.3-0.1-0.5-0.3-0.6-0.4c-0.2-0.2-0.3-0.4-0.4-0.6c-0.1-0.2-0.1-0.5-0.1-0.7
			c0-0.2,0-0.5,0.1-0.8C103.7,17.2,103.8,16.9,104,16.8z M104.3,18.2c0,0.2,0,0.3,0,0.4c0,0.1,0.1,0.3,0.2,0.4
			c0.1,0.1,0.2,0.2,0.4,0.3c0.2,0.1,0.3,0.1,0.5,0.1c0.1,0,0.3-0.1,0.4-0.1c0.1-0.1,0.2-0.2,0.3-0.3c0.1-0.1,0.1-0.3,0.2-0.4
			c0.1-0.2,0.1-0.3,0.1-0.5c0-0.2,0-0.3,0-0.4s-0.1-0.3-0.2-0.4c-0.1-0.1-0.2-0.2-0.4-0.3c-0.2-0.1-0.3-0.1-0.5-0.1
			c-0.1,0-0.3,0.1-0.4,0.1c-0.1,0.1-0.2,0.2-0.3,0.3c-0.1,0.1-0.1,0.3-0.2,0.4C104.3,17.9,104.3,18,104.3,18.2z"/>
		<path class="st0" d="M108.6,21.6c-0.2,0-0.3,0-0.5-0.1c-0.3-0.1-0.5-0.3-0.6-0.5c-0.2-0.2-0.3-0.4-0.4-0.6
			c-0.1-0.2-0.1-0.5-0.1-0.7c0-0.3,0-0.5,0.1-0.8c0.1-0.3,0.2-0.5,0.4-0.7c0.1-0.2,0.3-0.3,0.5-0.4c0.2-0.1,0.4-0.1,0.6-0.1
			c0.2,0,0.5,0.1,0.7,0.2c0.2,0.1,0.3,0.2,0.5,0.3c0.1,0.1,0.3,0.3,0.3,0.4c0.1,0.2,0.2,0.3,0.2,0.5c0,0.2,0,0.4,0,0.6l-0.7-0.3
			c0-0.2,0-0.4-0.1-0.6c-0.1-0.2-0.2-0.3-0.4-0.4c-0.2-0.1-0.3-0.1-0.4-0.1c-0.1,0-0.3,0.1-0.4,0.1c-0.1,0.1-0.2,0.2-0.3,0.3
			c-0.1,0.1-0.1,0.3-0.2,0.4c0,0.1-0.1,0.3-0.1,0.4c0,0.2,0,0.3,0,0.4c0,0.1,0.1,0.3,0.2,0.4c0.1,0.1,0.2,0.2,0.4,0.3
			c0.2,0.1,0.4,0.1,0.6,0.1c0.2-0.1,0.3-0.2,0.4-0.4l-0.7-0.4l0.2-0.6l1.4,0.7l-0.6,1.9l-0.5-0.2l0.1-0.4
			C109,21.6,108.8,21.6,108.6,21.6z"/>
		<path class="st0" d="M112.8,19.8c0.1,0.1,0.3,0.2,0.4,0.3c0.1,0.1,0.2,0.2,0.2,0.4c0.1,0.1,0.1,0.3,0.1,0.4c0,0.1,0,0.3-0.1,0.4
			c-0.1,0.2-0.2,0.4-0.3,0.5c-0.1,0.1-0.3,0.1-0.5,0.1l0,0c0.1,0.1,0.1,0.2,0.2,0.2c0,0.1,0.1,0.2,0.1,0.3c0,0.1,0,0.2,0,0.3
			c0,0.1,0,0.2-0.1,0.3c0,0.1,0,0.1-0.1,0.2c0,0.1,0,0.2-0.1,0.2c0,0.1,0,0.2,0,0.2c0,0.1,0,0.2,0,0.2l-0.7-0.4c0-0.1,0-0.3,0.1-0.4
			c0-0.2,0.1-0.3,0.1-0.5c0-0.2,0-0.4,0-0.5c0-0.1-0.2-0.2-0.3-0.3l-0.7-0.4l-0.5,1.3l-0.7-0.4l1.2-3.5L112.8,19.8z M112,21.2
			c0.2,0.1,0.3,0.1,0.4,0.1c0.1,0,0.2-0.1,0.3-0.3c0.1-0.2,0.1-0.3,0-0.4c-0.1-0.1-0.2-0.2-0.3-0.3l-0.8-0.4l-0.3,1L112,21.2z"/>
		<path class="st0" d="M116.4,22l-0.2,0.6l-1.6-1.1l-0.3,0.7l1.5,1l-0.2,0.6l-1.5-1l-0.3,0.8l1.7,1.1l-0.2,0.6l-2.3-1.5l1.2-3.5
			L116.4,22z"/>
		<path class="st0" d="M116.3,25.2c0,0.1,0,0.2,0.1,0.3c0,0.1,0.1,0.2,0.2,0.3c0.1,0.1,0.1,0.2,0.2,0.2c0.1,0,0.1,0.1,0.2,0.1
			c0.1,0,0.1,0.1,0.2,0.1c0.1,0,0.1,0,0.2,0c0.1,0,0.1-0.1,0.1-0.2c0-0.1,0-0.2,0-0.3c0-0.1-0.1-0.2-0.1-0.3
			c-0.1-0.1-0.1-0.2-0.2-0.3c-0.1-0.1-0.2-0.2-0.3-0.3c-0.1-0.1-0.2-0.2-0.3-0.4c-0.1-0.1-0.2-0.3-0.2-0.4c-0.1-0.1-0.1-0.3-0.1-0.4
			c0-0.1,0-0.3,0.1-0.5c0.1-0.2,0.1-0.3,0.3-0.4c0.1-0.1,0.2-0.1,0.4-0.1c0.1,0,0.3,0,0.4,0.1c0.1,0.1,0.3,0.1,0.4,0.2
			c0.2,0.1,0.3,0.2,0.4,0.4c0.1,0.1,0.2,0.3,0.3,0.5c0.1,0.2,0.1,0.4,0.1,0.5c0,0.2,0,0.4-0.1,0.6l-0.6-0.5c0-0.1,0-0.2,0-0.3
			c0-0.1,0-0.2-0.1-0.3c0-0.1-0.1-0.2-0.1-0.2c-0.1-0.1-0.1-0.1-0.2-0.2c-0.1,0-0.1-0.1-0.2-0.1c-0.1,0-0.1,0-0.2,0
			c-0.1,0-0.1,0-0.1,0c0,0-0.1,0.1-0.1,0.2c0,0.1,0,0.1,0,0.2c0,0.1,0,0.1,0.1,0.2c0.1,0.1,0.1,0.2,0.2,0.3c0.1,0.1,0.2,0.3,0.4,0.5
			c0,0.1,0.1,0.1,0.2,0.2c0.1,0.1,0.2,0.2,0.2,0.4c0.1,0.1,0.1,0.3,0.1,0.5c0,0.2,0,0.4-0.1,0.6c-0.1,0.2-0.1,0.3-0.2,0.4
			c-0.1,0.1-0.2,0.2-0.4,0.2c-0.1,0-0.3,0-0.5-0.1c-0.2-0.1-0.4-0.2-0.6-0.3c-0.2-0.1-0.3-0.3-0.4-0.4c-0.1-0.2-0.2-0.3-0.3-0.5
			c-0.1-0.2-0.1-0.4-0.1-0.6c0-0.2,0-0.4,0.1-0.6l0.6,0.5C116.3,25,116.3,25.1,116.3,25.2z"/>
		<path class="st0" d="M118.8,27.3c0,0.1,0,0.2,0.1,0.3c0,0.1,0.1,0.2,0.1,0.3c0.1,0.1,0.1,0.2,0.2,0.2c0.1,0,0.1,0.1,0.2,0.1
			c0.1,0,0.1,0.1,0.2,0.1c0.1,0,0.1,0,0.2,0c0.1,0,0.1-0.1,0.1-0.2c0-0.1,0-0.2,0-0.3c0-0.1-0.1-0.2-0.1-0.3
			c-0.1-0.1-0.1-0.2-0.2-0.3c-0.1-0.1-0.2-0.2-0.3-0.4c-0.1-0.1-0.2-0.3-0.2-0.4c-0.1-0.1-0.1-0.3-0.2-0.4c0-0.1-0.1-0.3-0.1-0.4
			c0-0.2,0-0.3,0.1-0.5c0.1-0.2,0.1-0.3,0.2-0.4c0.1-0.1,0.2-0.1,0.3-0.1c0.1,0,0.3,0,0.4,0.1c0.1,0.1,0.3,0.2,0.4,0.3
			c0.1,0.1,0.3,0.3,0.4,0.4c0.1,0.2,0.2,0.3,0.3,0.5c0.1,0.2,0.1,0.4,0.1,0.6c0,0.2,0,0.4-0.1,0.6l-0.6-0.5c0-0.1,0-0.2,0-0.3
			c0-0.1,0-0.2-0.1-0.3c0-0.1-0.1-0.2-0.1-0.2c-0.1-0.1-0.1-0.1-0.2-0.2c0,0-0.1-0.1-0.1-0.1c-0.1,0-0.1,0-0.2-0.1c0,0-0.1,0-0.1,0
			c0,0-0.1,0.1-0.1,0.1c0,0.1,0,0.1,0,0.2c0,0.1,0,0.1,0.1,0.2c0,0.1,0.1,0.2,0.2,0.3c0.1,0.1,0.2,0.3,0.4,0.5
			c0,0.1,0.1,0.1,0.2,0.3c0.1,0.1,0.1,0.3,0.2,0.4c0.1,0.2,0.1,0.3,0.1,0.5c0,0.2,0,0.4-0.1,0.6c-0.1,0.2-0.1,0.3-0.2,0.4
			c-0.1,0.1-0.2,0.1-0.3,0.2c-0.1,0-0.3,0-0.4-0.1c-0.2-0.1-0.3-0.2-0.5-0.4c-0.1-0.1-0.3-0.3-0.4-0.5c-0.1-0.2-0.2-0.4-0.3-0.6
			c-0.1-0.2-0.1-0.4-0.1-0.6s0-0.4,0.1-0.6l0.6,0.5C118.9,27.1,118.8,27.2,118.8,27.3z"/>
		<path class="st0" d="M121.3,27.5c0.1-0.2,0.3-0.3,0.4-0.3c0.1,0,0.3,0,0.5,0.1c0.2,0.1,0.3,0.2,0.5,0.5c0.2,0.2,0.3,0.5,0.4,0.8
			c0.1,0.3,0.2,0.6,0.2,0.8c0,0.3,0,0.6,0,0.9c0,0.3-0.1,0.6-0.2,0.8c-0.1,0.3-0.2,0.5-0.3,0.6c-0.1,0.2-0.3,0.2-0.4,0.3
			c-0.1,0-0.3,0-0.5-0.1c-0.2-0.1-0.3-0.2-0.5-0.5c-0.2-0.2-0.3-0.5-0.4-0.8c-0.1-0.3-0.2-0.6-0.2-0.8c0-0.3,0-0.6,0-0.9
			c0-0.3,0.1-0.6,0.2-0.8C121.1,27.9,121.2,27.7,121.3,27.5z M121.3,29.3c0,0.2,0,0.3,0,0.5c0,0.2,0,0.3,0.1,0.5
			c0.1,0.2,0.1,0.3,0.2,0.5c0.1,0.1,0.2,0.2,0.3,0.3c0.1,0,0.2,0,0.3,0c0.1,0,0.2-0.1,0.2-0.2c0.1-0.1,0.1-0.2,0.2-0.4
			c0.1-0.2,0.1-0.3,0.1-0.5c0-0.2,0-0.3,0-0.5c0-0.2,0-0.3-0.1-0.5c-0.1-0.2-0.1-0.3-0.2-0.5c-0.1-0.1-0.2-0.2-0.3-0.3
			c-0.1,0-0.2,0-0.3,0c-0.1,0-0.2,0.1-0.2,0.2c-0.1,0.1-0.1,0.2-0.2,0.4C121.4,28.9,121.4,29.1,121.3,29.3z"/>
	</g>
	<path class="st0" d="M97.1,0c-9,0-16.9,4.4-21.8,11.2c5.2-2.2,15.4-1.5,26.4,2.2c10.9,3.8,19.4,9.5,22.2,14.5c0-0.4,0-0.8,0-1.2
		C123.8,12,111.8,0,97.1,0z M107.3,14.6l-1.2-0.8l-1.2,0.7l0.3-1.3l-1.1-0.9l1.4,0L106,11l0.6,1.3l1.4,0.2l-1,0.8L107.3,14.6z"/>
	<path class="st0" d="M99.3,20.3c-6.5-2.2-12.9-3.4-18.2-3.4c-5.5,0-9.1,1.3-10.1,3.6c-0.5,2-0.7,4.1-0.7,6.3
		c0,14.8,12,26.8,26.8,26.8c10.8,0,20.2-6.4,24.4-15.7C122.8,32.9,112.8,24.9,99.3,20.3z M72.9,21.3l0.4-1l0.3,1l0.9,0l-0.7,0.8
		l0.2,1.1l-0.7-0.6l-0.7,0.6l0.3-1.1l-0.6-0.6L72.9,21.3z M73.6,37L73,36.5l-0.5,0.4l0.1-0.8L72,35.4l0.7,0l0.2-0.8l0.3,0.9l0.7,0.1
		l-0.5,0.5L73.6,37z M75.9,35.2l-0.8-0.6L74.4,35l0.1-1l-0.7-0.7l0.9,0c0,0,0.3-1,0.3-1l0.4,1.1l0.9,0.1l-0.7,0.7L75.9,35.2z
		 M77.7,32.8l-0.5-0.3l-0.4,0.3l0.1-0.6l-0.4-0.4l0.5,0l0.2-0.6l0.2,0.6l0.6,0.1l-0.4,0.4L77.7,32.8z M116.2,36.6l0.4-1.1l0.3,1
		l0.9,0l-0.8,0.8l0.1,1l-0.7-0.5l-0.9,0.6l0.3-1.1l-0.7-0.6L116.2,36.6z M103.1,25.3l0.3-0.8l0.3,0.9l0.9,0.1l-0.7,0.6l0.2,0.9
		l-0.7-0.5l-0.8,0.5l0.2-0.9l-0.7-0.6L103.1,25.3z M80.3,40.7l-0.7-0.5L79,40.6l0.1-0.7l-0.6-0.5l0.7,0l0.2-0.7l0.3,0.8l0.7,0.1
		L80,40L80.3,40.7z M81.1,38.1l-0.8-0.5l-0.7,0.4l0.2-0.9l-0.7-0.7H80l0.3-0.8l0.4,0.9l0.9,0.1l-0.7,0.6L81.1,38.1z M84.7,44.2
		l-0.9-0.6L82.9,44l0.2-0.9l-0.9-0.7l1,0l0.3-0.9l0.5,1l1.1,0.2l-0.8,0.6L84.7,44.2z M84.6,28.1l0.2,1L84,28.5l-0.8,0.5l0.2-1
		l-0.7-0.6l1-0.1l0.4-1l0.3,1l1,0.1L84.6,28.1z M92.8,36.3L92,35.8l-0.7,0.4l0.2-0.8l-0.7-0.6l0.9,0L92,34l0.3,0.8l0.9,0.1l-0.7,0.6
		L92.8,36.3z M93.7,37.7l0.2-0.6l-0.5-0.4l0.6,0l0.2-0.6l0.3,0.6l0.7,0.1l-0.5,0.4l0.2,0.6l-0.6-0.4L93.7,37.7z M96.6,50.1l-0.4-0.2
		l-0.4,0.2l0.1-0.4l-0.4-0.3l0.5,0l0.2-0.4l0.2,0.4l0.5,0l-0.4,0.3L96.6,50.1z M97.2,42.5l-1-0.6l-1,0.6l0.3-1.1l-0.9-0.7l1.2-0.1
		l0.5-1.1l0.4,1.1l1.2,0.1l-0.9,0.7L97.2,42.5z M97,32.5l0.2,1L96.4,33l-0.9,0.5l0.3-1L95,31.8l1.1-0.1l0.4-1l0.4,1l1,0.1L97,32.5z
		 M100.1,36.2l-0.9-0.5l-0.9,0.5l0.3-1l-0.8-0.7l1-0.1l0.4-1l0.4,1l1,0.1l-0.8,0.7L100.1,36.2z M102.4,44.4l-0.7,0.4l0.2-0.7
		l-0.6-0.5l0.8-0.1l0.3-0.7l0.3,0.7l0.8,0l-0.7,0.5l0.2,0.7L102.4,44.4z M105.3,47.9l-0.8-0.4l-0.8,0.4l0.3-0.8l-0.7-0.5l1-0.1
		l0.4-0.8l0.3,0.8l0.9,0l-0.8,0.6L105.3,47.9z M108,45.2l-0.6-0.3l-0.7,0.4l0.3-0.7l-0.6-0.4l0.8-0.1l0.4-0.7l0.2,0.7l0.8,0
		l-0.6,0.5L108,45.2z M110.6,49.1l-0.5-0.2l-0.7,0.4l0.3-0.6l-0.5-0.3l0.7-0.1l0.4-0.6l0.2,0.6l0.7,0l-0.6,0.5L110.6,49.1z
		 M111,46.1l0.1,0.7l-0.7-0.3l-0.8,0.5l0.3-0.8l-0.6-0.4l0.9-0.1l0.4-0.8l0.2,0.7l0.8,0L111,46.1z M111.2,43.6l0.1,0.7l-0.6-0.3
		l-0.7,0.4l0.3-0.7l-0.5-0.4l0.8-0.1l0.4-0.7l0.2,0.7l0.7,0L111.2,43.6z M113.8,44l-0.6-0.3l-0.7,0.4l0.3-0.7l-0.5-0.4l0.7-0.1
		l0.4-0.7l0.2,0.7l0.7,0l-0.6,0.5L113.8,44z M116.3,42.8l-0.6-0.4L115,43l0.3-0.8l-0.5-0.5l0.8-0.2l0.4-0.8l0.2,0.8l0.8,0l-0.7,0.6
		L116.3,42.8z M117.7,40.6l-0.6-0.4l-0.7,0.5l0.3-0.8l-0.5-0.5l0.8-0.2l0.4-0.8l0.2,0.8l0.8,0l-0.7,0.6L117.7,40.6z M120.3,37.8
		l-0.4-0.3l-0.6,0.4l0.2-0.7l-0.4-0.4l0.6-0.1l0.3-0.7l0.2,0.7l0.6,0l-0.5,0.5L120.3,37.8z"/>
</g>
</svg>
