<?xml version="1.0" encoding="UTF-8" standalone="no"?><!DOCTYPE svg PUBLIC "-//W3C//DTD SVG 1.1//EN" "http://www.w3.org/Graphics/SVG/1.1/DTD/svg11.dtd"><svg width="100%" height="100%" viewBox="0 0 114 58" version="1.1" xmlns="http://www.w3.org/2000/svg" xmlns:xlink="http://www.w3.org/1999/xlink" xml:space="preserve" xmlns:serif="http://www.serif.com/" style="fill-rule:evenodd;clip-rule:evenodd;stroke-linejoin:round;stroke-miterlimit:1.41421;"><g><path d="M18.21,9.47l-7.53,0l0,3.57l3.12,0l0,4.23c-0.36,0.18 -1.2,0.3 -2.25,0.3c-3.75,0 -6.36,-2.46 -6.36,-6.63c0,-4.38 2.88,-6.54 6.69,-6.54c2.22,0 3.6,0.39 4.71,0.87l0.96,-3.66c-0.99,-0.48 -3,-0.99 -5.61,-0.99c-6.63,0 -11.52,3.84 -11.55,10.56c-0.03,2.97 0.99,5.61 2.85,7.35c1.86,1.8 4.53,2.73 8.22,2.73c2.67,0 5.34,-0.66 6.75,-1.14l0,-10.65Z" style="fill:#fff;fill-rule:nonzero;"/><path d="M28.8,6.05c-4.71,0 -7.83,3.03 -7.83,7.77c0,4.74 3.3,7.56 7.59,7.56c3.93,0 7.74,-2.46 7.74,-7.83c0,-4.41 -3,-7.5 -7.5,-7.5Zm-0.12,3.24c2.07,0 2.91,2.22 2.91,4.41c0,2.64 -1.14,4.41 -2.91,4.41c-1.95,0 -3,-1.89 -3,-4.41c0,-2.16 0.81,-4.41 3,-4.41Z" style="fill:#fff;fill-rule:nonzero;"/><path d="M37.29,6.38l5.34,14.67l4.56,0l5.46,-14.67l-4.8,0l-1.89,6.81c-0.33,1.26 -0.57,2.37 -0.81,3.57l-0.09,0c-0.21,-1.17 -0.48,-2.34 -0.84,-3.57l-1.98,-6.81l-4.95,0Z" style="fill:#fff;fill-rule:nonzero;"/><path d="M67.26,15.17c0.06,-0.33 0.15,-1.02 0.15,-1.8c0,-3.63 -1.8,-7.32 -6.54,-7.32c-5.1,0 -7.41,4.11 -7.41,7.83c0,4.59 2.85,7.47 7.83,7.47c1.98,0 3.81,-0.3 5.31,-0.9l-0.6,-3.09c-1.23,0.39 -2.49,0.6 -4.05,0.6c-2.13,0 -3.99,-0.9 -4.14,-2.79l9.45,0Zm-9.48,-3.12c0.12,-1.23 0.9,-2.97 2.82,-2.97c2.1,0 2.58,1.86 2.58,2.97l-5.4,0Z" style="fill:#fff;fill-rule:nonzero;"/><path d="M70.14,21.05l4.56,0l0,-7.44c0,-0.36 0.03,-0.72 0.09,-1.02c0.3,-1.41 1.44,-2.31 3.12,-2.31c0.51,0 0.9,0.06 1.23,0.12l0,-4.29c-0.33,-0.06 -0.54,-0.06 -0.96,-0.06c-1.41,0 -3.21,0.9 -3.96,3.03l-0.12,0l-0.15,-2.7l-3.93,0c0.06,1.26 0.12,2.67 0.12,4.83l0,9.84Z" style="fill:#fff;fill-rule:nonzero;"/><path d="M81.54,21.05l4.56,0l0,-8.46c0,-0.42 0.06,-0.87 0.18,-1.14c0.3,-0.84 1.05,-1.71 2.31,-1.71c1.65,0 2.31,1.29 2.31,3.18l0,8.13l4.56,0l0,-8.7c0,-4.32 -2.25,-6.3 -5.25,-6.3c-2.43,0 -3.93,1.41 -4.53,2.34l-0.09,0l-0.21,-2.01l-3.96,0c0.06,1.29 0.12,2.85 0.12,4.68l0,9.99Z" style="fill:#fff;fill-rule:nonzero;"/><path d="M106.11,6.05c-4.71,0 -7.83,3.03 -7.83,7.77c0,4.74 3.3,7.56 7.59,7.56c3.93,0 7.74,-2.46 7.74,-7.83c0,-4.41 -3,-7.5 -7.5,-7.5Zm-0.12,3.24c2.07,0 2.91,2.22 2.91,4.41c0,2.64 -1.14,4.41 -2.91,4.41c-1.95,0 -3,-1.89 -3,-4.41c0,-2.16 0.81,-4.41 3,-4.41Z" style="fill:#fff;fill-rule:nonzero;"/><path d="M9.075,57.05l4.59,0l0,-8.13l7.26,0l0,-3.72l-7.26,0l0,-4.62l7.77,0l0,-3.75l-12.36,0l0,20.22Z" style="fill:#fff;fill-rule:nonzero;"/><path d="M36.915,51.17c0.06,-0.33 0.15,-1.02 0.15,-1.8c0,-3.63 -1.8,-7.32 -6.54,-7.32c-5.1,0 -7.41,4.11 -7.41,7.83c0,4.59 2.85,7.47 7.83,7.47c1.98,0 3.81,-0.3 5.31,-0.9l-0.6,-3.09c-1.23,0.39 -2.49,0.6 -4.05,0.6c-2.13,0 -3.99,-0.9 -4.14,-2.79l9.45,0Zm-9.48,-3.12c0.12,-1.23 0.9,-2.97 2.82,-2.97c2.1,0 2.58,1.86 2.58,2.97l-5.4,0Z" style="fill:#fff;fill-rule:nonzero;"/><path d="M49.455,35.75l0,7.95l-0.06,0c-0.66,-1.02 -2.07,-1.65 -3.87,-1.65c-3.51,0 -6.6,2.85 -6.57,7.8c0,4.56 2.79,7.53 6.27,7.53c1.89,0 3.66,-0.84 4.59,-2.49l0.06,0l0.21,2.16l4.05,0c-0.06,-0.99 -0.12,-2.73 -0.12,-4.38l0,-16.92l-4.56,0Zm0,14.76c0,0.39 -0.03,0.72 -0.12,1.05c-0.27,1.29 -1.32,2.19 -2.64,2.19c-1.89,0 -3.12,-1.56 -3.12,-4.05c0,-2.31 1.08,-4.17 3.15,-4.17c1.41,0 2.4,1.02 2.67,2.25c0.03,0.24 0.06,0.57 0.06,0.81l0,1.92Z" style="fill:#fff;fill-rule:nonzero;"/><path d="M70.635,51.17c0.06,-0.33 0.15,-1.02 0.15,-1.8c0,-3.63 -1.8,-7.32 -6.54,-7.32c-5.1,0 -7.41,4.11 -7.41,7.83c0,4.59 2.85,7.47 7.83,7.47c1.98,0 3.81,-0.3 5.31,-0.9l-0.6,-3.09c-1.23,0.39 -2.49,0.6 -4.05,0.6c-2.13,0 -3.99,-0.9 -4.14,-2.79l9.45,0Zm-9.48,-3.12c0.12,-1.23 0.9,-2.97 2.82,-2.97c2.1,0 2.58,1.86 2.58,2.97l-5.4,0Z" style="fill:#fff;fill-rule:nonzero;"/><path d="M73.515,57.05l4.56,0l0,-7.44c0,-0.36 0.03,-0.72 0.09,-1.02c0.3,-1.41 1.44,-2.31 3.12,-2.31c0.51,0 0.9,0.06 1.23,0.12l0,-4.29c-0.33,-0.06 -0.54,-0.06 -0.96,-0.06c-1.41,0 -3.21,0.9 -3.96,3.03l-0.12,0l-0.15,-2.7l-3.93,0c0.06,1.26 0.12,2.67 0.12,4.83l0,9.84Z" style="fill:#fff;fill-rule:nonzero;"/><path d="M97.035,57.05c-0.15,-0.81 -0.21,-2.16 -0.21,-3.57l0,-5.1c0,-3.45 -1.56,-6.33 -6.45,-6.33c-2.67,0 -4.68,0.72 -5.7,1.29l0.84,2.94c0.96,-0.6 2.55,-1.11 4.05,-1.11c2.25,0 2.67,1.11 2.67,1.89l0,0.21c-5.19,-0.03 -8.61,1.8 -8.61,5.61c0,2.34 1.77,4.5 4.74,4.5c1.74,0 3.24,-0.63 4.2,-1.8l0.09,0l0.27,1.47l4.11,0Zm-4.65,-5.34c0,0.27 -0.03,0.54 -0.09,0.78c-0.3,0.93 -1.23,1.68 -2.37,1.68c-1.02,0 -1.8,-0.57 -1.8,-1.74c0,-1.77 1.86,-2.34 4.26,-2.31l0,1.59Z" style="fill:#fff;fill-rule:nonzero;"/><rect x="100.425" y="35.75" width="4.56" height="21.3" style="fill:#fff;fill-rule:nonzero;"/></g></svg>