<?xml version="1.0" encoding="utf-8"?>
<!-- Generator: Adobe Illustrator 22.0.1, SVG Export Plug-In . SVG Version: 6.00 Build 0)  -->
<svg version="1.1" id="Camada_1" xmlns="http://www.w3.org/2000/svg" xmlns:xlink="http://www.w3.org/1999/xlink" x="0px" y="0px"
	 viewBox="0 0 200 108.8" style="enable-background:new 0 0 200 108.8;" xml:space="preserve">
<style type="text/css">
	.st0{fill-rule:evenodd;clip-rule:evenodd;fill:#FFFFFF;}
	.st1{fill:#FFFFFF;}
</style>
<g>
	<path class="st0" d="M61.5,45.1c-2.5,0.2-5,0.4-7.5,0.6h0c-1.6,0.2-3.3,0.4-5.1,0.7c-1.8,0.3-3.6,0.8-5.5,1.3
		c-9.7,2.6-20.2,7.3-27.2,13.5c-1.7,1.5-3.5,3.5-5,5.9c-1.7,2.7-2.9,5.9-3,9.3c0,3.4,1.2,7.1,4.3,10.9c1.9,2.2,4.4,4.5,7.8,6.8
		c1.8,1.2,3.6,2.3,5.6,3.4v0c1,0.5,1.9,1.1,2.9,1.6c0-1.1,0.1-2.1,0.2-3.2c0.5-5.6,2-10.5,3.5-13.9l0,0v0c1.1-2.7,2.5-5.3,4-7.9
		c1.5-2.5,3.1-5,4.8-7.4C47.8,57.8,55.5,50.2,61.5,45.1 M75.7,44.5c-0.2,0.1-0.4,0.3-0.7,0.5c-0.2,0.2-0.7,0.5-1.2,0.9
		c-2.1,1.5-4.2,3.1-6.2,4.8l0,0l0,0c-1.9,1.5-3.7,3-5.4,4.6c-1.8,1.6-3.5,3.3-5.2,5c-8.6,8.9-15.7,19.5-19.1,31.3v0h0l0,0
		c-0.1,0.3-0.2,0.6-0.2,0.9c-0.1,0.3-0.2,0.8-0.2,1.3c-0.3,1.9-0.5,4.6-0.3,7.6c-0.1,6-3.3,8.4-7.2,6.9c-7.9-3.2-14.1-6.6-18.7-10.6
		c-5-4.2-8.3-9-10.1-14.6v0l0,0c-0.6-1.9-1-3.8-1-5.6c-0.1-1.8,0.1-3.6,0.4-5.4C2.2,63.5,9,56,15.6,51.2l0,0v0
		c1-0.7,2.1-1.4,3.4-2.2c1.2-0.7,2.6-1.5,4.1-2.3c7.6-3.9,18.2-8,29-9.4c3.8-0.5,7.6-0.9,11.4-1.1c3.5-0.2,7-0.3,10.4-0.3
		c4.3-2.8,8.6-5.5,13-7.9c4.6-2.5,9.1-4.9,13.7-7c23.2-10.8,46.1-16.6,63.8-19.4c0.2-0.2,0.4-0.3,0.6-0.5c1.1-0.8,2.5-1.1,3.6-1.1
		l0,0v0c1.6,0,3.1,0.7,4.1,1.8c1.1,1.1,1.7,2.6,1.7,4.3h0l0,0l0,0h0c0,1.7-0.6,3.2-1.7,4.3c-1.1,1.1-2.5,1.8-4.1,1.8v0l0,0l0,0v0
		c-0.9,0-1.7-0.2-2.4-0.5c-0.2-0.1-0.4-0.2-0.5-0.3c-0.4-0.3-0.8-0.6-1.2-1c-3.6,0.4-7.2,1-10.8,1.7c-4.1,0.8-8.1,1.6-12.1,2.6
		c-18.4,4.6-36.7,12.1-53.1,21.7C82.9,39.7,82.3,40.7,75.7,44.5z"/>
	<path class="st1" d="M29.2,77.4h1.2c0.4,0,0.7-0.1,0.8-0.2c0.2-0.1,0.2-0.3,0.2-0.6c0-0.2-0.1-0.4-0.2-0.5
		c-0.2-0.1-0.4-0.2-0.8-0.2h-1.2V77.4z M29.2,74.5h1c0.4,0,0.6-0.1,0.7-0.2c0.1-0.1,0.2-0.3,0.2-0.5c0-0.2-0.1-0.4-0.2-0.5
		c-0.1-0.1-0.4-0.2-0.7-0.2h-1V74.5z M26.9,71.6h4.3c0.7,0,1.3,0.2,1.6,0.5c0.4,0.4,0.6,0.8,0.6,1.3c0,0.4-0.1,0.8-0.4,1.1
		c-0.2,0.2-0.4,0.4-0.8,0.5c0.5,0.1,0.9,0.3,1.2,0.7c0.2,0.3,0.4,0.7,0.4,1.2c0,0.4-0.1,0.7-0.3,1c-0.2,0.3-0.4,0.5-0.7,0.7
		c-0.2,0.1-0.5,0.2-0.9,0.2c-0.5,0.1-0.9,0.1-1,0.1h-3.9V71.6z M22.9,76.1l-0.8-2.7l-0.8,2.7H22.9z M23.4,77.7h-2.6l-0.4,1.2h-2.3
		l2.8-7.4h2.5l2.8,7.4h-2.4L23.4,77.7z M15.4,71.6h2.3V76c0,0.4-0.1,0.9-0.2,1.2c-0.1,0.4-0.3,0.7-0.6,1c-0.3,0.3-0.6,0.5-0.9,0.6
		c-0.4,0.2-1,0.2-1.6,0.2c-0.4,0-0.7,0-1.2-0.1c-0.4-0.1-0.8-0.2-1.1-0.3c-0.3-0.2-0.6-0.4-0.8-0.6c-0.2-0.3-0.4-0.6-0.5-0.9
		c-0.1-0.5-0.2-0.9-0.2-1.2v-4.4h2.3v4.5c0,0.4,0.1,0.7,0.3,0.9c0.2,0.2,0.5,0.3,0.9,0.3c0.4,0,0.7-0.1,0.9-0.3
		c0.2-0.2,0.3-0.5,0.3-1V71.6z"/>
	<path class="st1" d="M68.2,87.2l-1-3.3l-1,3.3H68.2z M68.8,89.1h-3.2l-0.4,1.5h-2.9l3.4-9.1h3.1l3.4,9.1h-2.9L68.8,89.1z"/>
	<path class="st1" d="M75.9,85.1h1.2c0.4,0,0.7-0.1,0.9-0.2c0.2-0.1,0.3-0.4,0.3-0.7c0-0.3-0.1-0.5-0.3-0.6
		c-0.2-0.2-0.5-0.2-0.9-0.2h-1.2V85.1z M75.9,88.7h1.4c0.5,0,0.8-0.1,1-0.3c0.2-0.2,0.3-0.4,0.3-0.7c0-0.3-0.1-0.5-0.3-0.6
		c-0.2-0.2-0.5-0.2-1-0.2h-1.4V88.7z M73.1,81.6h5.3c0.9,0,1.5,0.2,2,0.7c0.5,0.4,0.7,1,0.7,1.6c0,0.5-0.2,1-0.5,1.4
		c-0.2,0.3-0.5,0.5-1,0.6c0.7,0.2,1.1,0.4,1.4,0.8c0.3,0.4,0.5,0.9,0.5,1.4c0,0.5-0.1,0.9-0.3,1.3c-0.2,0.4-0.5,0.7-0.9,0.9
		c-0.2,0.1-0.6,0.2-1.1,0.3c-0.6,0.1-1.1,0.1-1.3,0.1h-4.9V81.6z"/>
	<path class="st1" d="M95,85.2h1.2c0.1,0,0.4,0,0.7-0.1c0.2,0,0.3-0.1,0.5-0.3c0.1-0.2,0.2-0.3,0.2-0.5c0-0.3-0.1-0.5-0.3-0.7
		c-0.2-0.2-0.5-0.2-1.1-0.2H95V85.2z M92.2,90.6v-9.1h4.7c0.9,0,1.5,0.1,2,0.2c0.5,0.1,0.8,0.4,1.1,0.8c0.3,0.4,0.4,0.9,0.4,1.5
		c0,0.5-0.1,0.9-0.3,1.3c-0.2,0.4-0.5,0.7-0.9,0.9c-0.2,0.1-0.6,0.3-1,0.4c0.3,0.1,0.6,0.2,0.7,0.3c0.1,0.1,0.2,0.2,0.4,0.5
		c0.2,0.2,0.3,0.4,0.4,0.6l1.4,2.6h-3.2l-1.5-2.8c-0.2-0.4-0.4-0.6-0.5-0.7C95.7,87,95.5,87,95.2,87H95v3.7H92.2z"/>
	<path class="st1" d="M115.2,87.2l-1-3.3l-1,3.3H115.2z M115.8,89.1h-3.2l-0.4,1.5h-2.9l3.4-9.1h3.1l3.4,9.1h-2.9L115.8,89.1z"/>
	<path class="st1" d="M127.2,83.6v5h0.7c0.6,0,1-0.1,1.3-0.2c0.2-0.1,0.4-0.3,0.6-0.7c0.1-0.3,0.2-0.9,0.2-1.6c0-1-0.2-1.6-0.5-2
		c-0.3-0.4-0.8-0.5-1.6-0.5H127.2z M124.4,81.6h4.2c0.8,0,1.5,0.1,2,0.3c0.5,0.2,0.9,0.5,1.3,1c0.3,0.4,0.6,0.9,0.7,1.4
		c0.1,0.6,0.2,1.1,0.2,1.8c0,1-0.1,1.7-0.3,2.3c-0.2,0.5-0.5,1-0.9,1.3c-0.4,0.4-0.8,0.6-1.3,0.7c-0.6,0.2-1.2,0.2-1.7,0.2h-4.2
		V81.6z"/>
	<path class="st1" d="M136.7,86.1c0,0.9,0.2,1.6,0.5,2c0.3,0.4,0.8,0.6,1.4,0.6c0.6,0,1.1-0.2,1.4-0.6c0.3-0.4,0.5-1.1,0.5-2.1
		c0-0.9-0.2-1.5-0.5-1.9c-0.3-0.4-0.8-0.6-1.4-0.6c-0.6,0-1,0.2-1.4,0.6C136.9,84.5,136.7,85.2,136.7,86.1 M133.9,86.1
		c0-1.5,0.4-2.6,1.2-3.5c0.8-0.8,2-1.2,3.5-1.2c1.5,0,2.7,0.4,3.5,1.2c0.8,0.8,1.2,2,1.2,3.4c0,1.1-0.2,1.9-0.5,2.6
		c-0.4,0.7-0.9,1.2-1.6,1.6c-0.7,0.4-1.5,0.6-2.5,0.6c-1,0-1.9-0.2-2.5-0.5c-0.7-0.3-1.2-0.8-1.6-1.6
		C134.1,88.1,133.9,87.2,133.9,86.1z"/>
	<path class="st1" d="M161.8,85.2h1.2c0.1,0,0.4,0,0.7-0.1c0.2,0,0.3-0.1,0.5-0.3c0.1-0.2,0.2-0.3,0.2-0.5c0-0.3-0.1-0.5-0.3-0.7
		c-0.2-0.2-0.5-0.2-1.1-0.2h-1.2V85.2z M159,90.6v-9.1h4.7c0.9,0,1.5,0.1,2,0.2c0.5,0.1,0.8,0.4,1.1,0.8c0.3,0.4,0.4,0.9,0.4,1.5
		c0,0.5-0.1,0.9-0.3,1.3c-0.2,0.4-0.5,0.7-0.9,0.9c-0.2,0.1-0.6,0.3-1,0.4c0.3,0.1,0.6,0.2,0.7,0.3c0.1,0.1,0.2,0.2,0.4,0.5
		c0.2,0.2,0.3,0.4,0.4,0.6l1.4,2.6h-3.2l-1.5-2.8c-0.2-0.4-0.4-0.6-0.5-0.7c-0.2-0.1-0.4-0.2-0.7-0.2h-0.2v3.7H159z"/>
	<path class="st1" d="M151.9,88.7h1.4c0.5,0,0.8-0.1,1-0.3c0.2-0.2,0.3-0.4,0.3-0.7c0-0.3-0.1-0.5-0.3-0.6c-0.2-0.2-0.5-0.2-1-0.2
		h-1.4V88.7z M151.9,85.1h1.2c0.4,0,0.7-0.1,0.9-0.2c0.2-0.1,0.2-0.4,0.2-0.7c0-0.3-0.1-0.5-0.2-0.6c-0.2-0.2-0.5-0.2-0.9-0.2h-1.2
		V85.1z M149,81.6h5.3c0.9,0,1.6,0.2,2,0.7c0.5,0.4,0.7,1,0.7,1.6c0,0.5-0.2,1-0.5,1.4c-0.2,0.3-0.6,0.5-1,0.6
		c0.7,0.2,1.1,0.4,1.4,0.8c0.3,0.4,0.5,0.9,0.5,1.4c0,0.5-0.1,0.9-0.3,1.3c-0.2,0.4-0.5,0.7-0.9,0.9c-0.2,0.1-0.6,0.2-1.1,0.3
		c-0.6,0.1-1.1,0.1-1.3,0.1H149V81.6z"/>
	<path class="st1" d="M173.8,87.2l-1-3.3l-1,3.3H173.8z M174.4,89.1h-3.2l-0.4,1.5h-2.9l3.4-9.1h3.1l3.4,9.1h-2.9L174.4,89.1z"/>
	<polygon class="st1" points="192.8,81.6 195.6,81.6 195.6,88.4 200,88.4 200,90.6 192.8,90.6 	"/>
	<rect x="188" y="81.6" class="st1" width="2.8" height="9.1"/>
	<path class="st1" d="M178.2,87.6l2.7-0.2c0.1,0.4,0.2,0.8,0.3,1c0.3,0.4,0.7,0.6,1.2,0.6c0.4,0,0.7-0.1,0.9-0.3
		c0.2-0.2,0.3-0.4,0.3-0.7c0-0.2-0.1-0.4-0.3-0.6c-0.2-0.2-0.7-0.4-1.4-0.5c-1.2-0.3-2.1-0.6-2.6-1.1c-0.5-0.5-0.8-1-0.8-1.8
		c0-0.5,0.1-0.9,0.4-1.3c0.3-0.4,0.7-0.7,1.2-1c0.5-0.2,1.3-0.4,2.2-0.4c1.2,0,2,0.2,2.7,0.7c0.6,0.4,1,1.1,1.1,2.1l-2.6,0.2
		c-0.1-0.4-0.2-0.7-0.4-0.9c-0.2-0.2-0.5-0.3-0.9-0.3c-0.3,0-0.6,0.1-0.7,0.2c-0.2,0.1-0.2,0.3-0.2,0.5c0,0.1,0.1,0.3,0.2,0.4
		c0.1,0.1,0.4,0.2,0.9,0.3c1.2,0.3,2.1,0.5,2.6,0.8c0.5,0.3,0.9,0.6,1.2,1c0.2,0.4,0.4,0.8,0.4,1.3c0,0.6-0.2,1.1-0.5,1.6
		c-0.3,0.5-0.8,0.9-1.4,1.1c-0.6,0.3-1.3,0.4-2.2,0.4c-1.5,0-2.6-0.3-3.2-0.9C178.6,89.3,178.3,88.6,178.2,87.6"/>
	<polygon class="st1" points="101.3,81.6 109.8,81.6 109.8,83.8 106.9,83.8 106.9,90.6 104.1,90.6 104.1,83.8 101.3,83.8 	"/>
	<polygon class="st1" points="83,81.6 90.5,81.6 90.5,83.5 85.8,83.5 85.8,84.9 90.1,84.9 90.1,86.8 85.8,86.8 85.8,88.6 90.6,88.6 
		90.6,90.6 83,90.6 	"/>
	<path class="st1" d="M170.9,72.1l-1.3-4.2l-1.3,4.2H170.9z M171.6,74.6h-4.2l-0.6,1.9h-3.7l4.4-11.8h4l4.4,11.8h-3.8L171.6,74.6z"
		/>
	<path class="st1" d="M180.9,67.4v6.4h0.9c0.8,0,1.3-0.1,1.6-0.2c0.3-0.2,0.6-0.5,0.8-0.9c0.2-0.4,0.3-1.1,0.3-2
		c0-1.3-0.2-2.1-0.6-2.6c-0.4-0.5-1.1-0.7-2-0.7H180.9z M177.3,64.7h5.4c1.1,0,1.9,0.1,2.6,0.4c0.7,0.3,1.2,0.7,1.6,1.3
		c0.4,0.5,0.7,1.2,0.9,1.9c0.2,0.7,0.3,1.5,0.3,2.3c0,1.3-0.1,2.2-0.4,2.9c-0.3,0.7-0.7,1.3-1.2,1.7c-0.5,0.5-1.1,0.8-1.6,0.9
		c-0.8,0.2-1.5,0.3-2.2,0.3h-5.4V64.7z"/>
	<path class="st1" d="M155.9,67.4v6.4h0.9c0.8,0,1.3-0.1,1.6-0.2c0.3-0.2,0.6-0.5,0.8-0.9c0.2-0.4,0.3-1.1,0.3-2
		c0-1.3-0.2-2.1-0.6-2.6c-0.4-0.5-1.1-0.7-2-0.7H155.9z M152.3,64.7h5.4c1.1,0,1.9,0.1,2.6,0.4c0.6,0.3,1.2,0.7,1.6,1.3
		c0.4,0.5,0.7,1.2,0.9,1.9c0.2,0.7,0.3,1.5,0.3,2.3c0,1.3-0.1,2.2-0.4,2.9c-0.3,0.7-0.7,1.3-1.2,1.7c-0.5,0.5-1.1,0.8-1.6,0.9
		c-0.8,0.2-1.5,0.3-2.2,0.3h-5.4V64.7z"/>
	<path class="st1" d="M124.8,69.5h1.5c0.2,0,0.5-0.1,1-0.2c0.3-0.1,0.4-0.2,0.6-0.4c0.1-0.2,0.2-0.4,0.2-0.7c0-0.4-0.1-0.7-0.4-0.9
		c-0.2-0.2-0.7-0.3-1.4-0.3h-1.6V69.5z M121.1,76.6V64.7h6.1c1.1,0,2,0.1,2.6,0.3c0.6,0.2,1.1,0.5,1.4,1.1c0.4,0.5,0.5,1.2,0.5,1.9
		c0,0.7-0.1,1.2-0.4,1.7c-0.3,0.5-0.7,0.9-1.2,1.2c-0.3,0.2-0.7,0.3-1.3,0.5c0.4,0.1,0.7,0.3,0.9,0.4c0.1,0.1,0.3,0.3,0.6,0.6
		c0.3,0.3,0.4,0.6,0.5,0.7l1.8,3.4h-4.1l-1.9-3.6c-0.3-0.5-0.5-0.8-0.7-0.9c-0.3-0.2-0.6-0.3-0.9-0.3h-0.3v4.8H121.1z"/>
	<polygon class="st1" points="190,64.7 199.8,64.7 199.8,67.3 193.7,67.3 193.7,69.1 199.4,69.1 199.4,71.6 193.7,71.6 193.7,73.9 
		200,73.9 200,76.6 190,76.6 	"/>
	<rect x="146" y="64.7" class="st1" width="3.7" height="11.8"/>
	<path class="st1" d="M133.3,72.7l3.5-0.2c0.1,0.6,0.2,1,0.5,1.3c0.4,0.5,0.9,0.7,1.6,0.7c0.5,0,0.9-0.1,1.2-0.4
		c0.3-0.2,0.4-0.5,0.4-0.8c0-0.3-0.1-0.6-0.4-0.8c-0.3-0.2-0.9-0.5-1.9-0.7c-1.6-0.4-2.7-0.8-3.4-1.4c-0.7-0.6-1-1.4-1-2.3
		c0-0.6,0.2-1.2,0.5-1.7c0.4-0.5,0.9-1,1.6-1.3c0.7-0.3,1.7-0.5,2.9-0.5c1.5,0,2.7,0.3,3.5,0.8c0.8,0.6,1.3,1.5,1.4,2.7l-3.4,0.2
		c-0.1-0.5-0.3-0.9-0.6-1.2c-0.3-0.3-0.7-0.4-1.2-0.4c-0.4,0-0.7,0.1-1,0.3c-0.2,0.2-0.3,0.4-0.3,0.7c0,0.2,0.1,0.3,0.3,0.5
		c0.2,0.2,0.6,0.3,1.2,0.4c1.6,0.3,2.7,0.7,3.4,1c0.7,0.3,1.2,0.8,1.5,1.3c0.3,0.5,0.5,1.1,0.5,1.7c0,0.8-0.2,1.5-0.6,2.1
		c-0.4,0.6-1,1.1-1.8,1.4c-0.8,0.3-1.7,0.5-2.8,0.5c-2,0-3.4-0.4-4.2-1.2C133.8,74.8,133.4,73.8,133.3,72.7"/>
	<polygon class="st1" points="109.1,64.7 118.9,64.7 118.9,67.3 112.8,67.3 112.8,69.1 118.5,69.1 118.5,71.6 112.8,71.6 
		112.8,73.9 119.1,73.9 119.1,76.6 109.1,76.6 	"/>
	<polygon class="st1" points="95.1,64.7 99,64.7 101.6,73.3 104.2,64.7 107.9,64.7 103.6,76.6 99.6,76.6 	"/>
	<rect x="90" y="64.7" class="st1" width="3.7" height="11.8"/>
	<polygon class="st1" points="76.2,64.7 79.6,64.7 84,71.3 84,64.7 87.4,64.7 87.4,76.6 84,76.6 79.6,70.1 79.6,76.6 76.2,76.6 	"/>
	<path class="st1" d="M70.1,64.7h3.6v7c0,0.7-0.1,1.4-0.3,2c-0.2,0.6-0.6,1.2-1,1.6c-0.5,0.5-0.9,0.8-1.5,1
		c-0.7,0.3-1.6,0.4-2.6,0.4c-0.6,0-1.2,0-1.9-0.1c-0.7-0.1-1.2-0.2-1.7-0.5c-0.5-0.2-0.9-0.6-1.3-1c-0.4-0.4-0.6-0.9-0.8-1.4
		c-0.2-0.7-0.3-1.4-0.3-2v-7H66V72c0,0.7,0.2,1.2,0.5,1.5c0.4,0.4,0.9,0.5,1.5,0.5c0.6,0,1.1-0.2,1.5-0.5c0.4-0.4,0.5-0.9,0.5-1.5
		V64.7z"/>
</g>
</svg>
