<svg version="1.1" id="Layer_1" xmlns="http://www.w3.org/2000/svg" xmlns:xlink="http://www.w3.org/1999/xlink" x="0px" y="0px"
	 viewBox="0 0 526.7 171.3" style="enable-background:new 0 0 526.7 171.3;" xml:space="preserve">
<g>
	<g>
		<path fill="#fff" d="M237.5,65C252,65,259,71,259,81c0,5.6-3.7,10.4-9.2,12.4c6.7,1.8,12.5,7.9,12.5,15.5
			c0,9.8-7.1,17.2-23.4,17.2c-8,0-14.4-0.2-21.7-0.3l-0.6-0.6V65.9l0.6-0.6C224.3,65.2,231,65,237.5,65z M226.8,90.4h10.3
			c9.2,0,11.3-4.9,11.3-9.1c0-4.3-1.9-9.1-11.1-9.1c-2.8,0-7.4,0-10.5-0.1V90.4z M226.8,97.6V119c4.1,0,8.3-0.1,11.9-0.1
			c10.6,0,12.8-6.1,12.8-10.6c0-4.4-2.9-10.7-13.4-10.7H226.8z"/>
		<path fill="#fff" d="M301.5,99.2c3.2,1.1,5.6,4.1,7,7.5l4.3,10.3c1,2.4,2.2,4.8,4.4,6.4c-1.4,1.9-4.4,2.9-7.1,2.9
			c-3.9,0-5.3-1.9-6.9-5.7l-4.9-11.9c-1.7-4.1-3.8-7.2-9.9-7.2h-8.1v24.3c-1.6,0.3-3.5,0.4-5.2,0.4c-1.6,0-3.6-0.1-5.1-0.4V65.9
			l0.6-0.6c7.4-0.1,14.5-0.3,21.1-0.3c13.7,0,22.3,6.4,22.3,18.1C314.1,91.3,308.7,97.2,301.5,99.2z M280.4,93.9
			c3.8-0.1,8.2-0.2,10.9-0.2c9.6,0,12-5.5,12-10.6c0-5.4-2.4-10.7-12-10.7c-2.9,0-7.6,0-10.9-0.1V93.9z"/>
		<path fill="#fff" d="M337.8,111.1l-5.2,14.8c-1.3,0.3-2.9,0.4-4.5,0.4c-1.9,0-3.7-0.3-5.1-0.6l-0.3-0.4l22.2-59.7
			c1.6-0.3,4.3-0.4,6-0.4c1.7,0,4.4,0.1,5.9,0.4l22,59.7c-1.5,0.9-3.8,1.2-6.1,1.2c-3.2,0-4.9-1.1-6.2-4.9l-3.6-10.3
			c-1.7,0-5.1,0.1-5.9,0.1h-13.5C342.7,111.2,339.5,111.1,337.8,111.1z M340.4,103.5c1.6,0,4.2-0.1,5-0.1h9.8c0.7,0,3.3,0.1,4.9,0.1
			l-4.5-12.8c-1.8-5.1-3.8-11.3-5.2-16H350c-1,4-2.8,9.5-3.8,12.8L340.4,103.5z"/>
		<path fill="#fff" d="M388.1,113c5.7,3.4,13,6,19.8,6c8,0,12.5-3.4,12.6-8.3c0-4.2-3.2-7.3-8.9-9.5l-11.6-4.5
			c-8.3-3.2-13.5-7.8-13.5-15.3c0-9.6,9-17.1,22.2-17.1c8.2,0,15.7,2.3,20.8,4.6c-0.1,2.7-1.7,5.6-3.8,7.3
			c-5.1-2.3-11.8-4.2-16.8-4.2c-7.3,0-11.8,3.6-11.8,8.3c0,3.9,3.3,6.1,8.2,8l11.4,4.4c8.5,3.2,14.7,8.6,14.7,16.4
			c0,10.2-7.9,17.8-24.1,17.8c-8.2,0-17-2.5-23.6-6.6C384,117.5,385.9,114.6,388.1,113z"/>
		<g>
			<path fill="#fff" d="M443.6,65.4c1.5-0.3,3.6-0.4,5.2-0.4c1.6,0,3.6,0.1,5.2,0.4v60.3c-1.6,0.3-3.6,0.4-5.2,0.4
				c-1.6,0-3.7-0.1-5.2-0.4V65.4z"/>
			<path fill="#fff" d="M509.9,117.6c0,1-0.1,2.6-0.3,3.7c-0.6,3-3,4.5-6.8,4.5h-25.7c-3.5,0-6.1-2-6.1-5.8V65.6l0.7-0.5h3.9
				c4.3,0,5.9,1.9,5.9,6V118c3-0.3,6.1-0.4,8.7-0.4H509.9z"/>
			<g>
				<path fill="#fff" d="M226.6,45.1h-4.1v10.1c-0.9,0.2-2.1,0.2-3,0.2c-0.8,0-2,0-3-0.2V25l0.3-0.3c3.6-0.1,6.5-0.2,9.7-0.2
					c6.1,0,10.6,3.3,10.6,10.3C237.1,41.6,232.7,45.1,226.6,45.1z M222.5,40.6c1.5,0,3.1-0.1,3.7-0.1c4,0,4.8-3.2,4.8-5.6
					c0-2.4-0.8-5.6-4.8-5.6c-1.1,0-2.4,0-3.7,0V40.6z"/>
				<path fill="#fff" d="M244.2,48.3l-2.1,6.9c-0.8,0.2-1.6,0.2-2.6,0.2c-0.9,0-2.1-0.1-2.8-0.4l-0.2-0.3l9.9-30
					c1-0.1,2.4-0.2,3.5-0.2c0.9,0,2.5,0.1,3.4,0.3l9.7,30c-0.8,0.5-2.3,0.8-3.4,0.8c-1.9,0-2.8-0.7-3.6-3.2l-1.2-4.1
					c-0.7,0-1.7,0-2.2,0h-6.2C246,48.3,244.9,48.3,244.2,48.3z M245.7,43.6c0.6,0,1.6,0,2,0h3.8c0.4,0,1.2,0,1.9,0l-1.3-4.5
					c-0.8-2.5-1.7-6-2.4-8.6h-0.3c-0.4,2.3-1.4,5.5-2,7.5L245.7,43.6z"/>
				<path fill="#fff" d="M269.3,33c0-1.2,0-2,0-3.3h0c-0.6,0-2,0-2.7,0h-4.9c-0.2-0.9-0.2-1.8-0.2-2.5c0-0.7,0-1.6,0.2-2.5h21.3
					c0.2,0.6,0.3,1.6,0.3,2.3c0,2-1,2.7-3.2,2.7h-2.1c-0.6,0-2,0-2.7,0h0c0,1.2,0,2.1,0,3.3v22.2c-1,0.2-2.1,0.2-3,0.2
					c-0.8,0-2,0-3-0.2V33z"/>
				<path fill="#fff" d="M302.4,42.1c1.6,0.6,2.7,2.1,3.3,3.9l1.6,4.5c0.4,1.2,1.1,2.4,2.1,3.2c-0.8,1.1-2.4,1.8-4,1.8
					c-2.2,0-2.9-1.2-3.8-3.5l-1.9-5.3c-0.7-1.8-1.6-3.2-4.1-3.2H293v11.7c-1,0.2-2.1,0.2-3,0.2c-0.8,0-2,0-2.9-0.2V25l0.3-0.3
					c3.6-0.1,6.9-0.2,10.2-0.2c6.2,0,10.5,3.1,10.5,9.4C308,38.2,305.3,41.1,302.4,42.1z M293,38.9c1.6-0.1,3.2-0.1,4.1-0.1
					c3.9,0,4.8-2.4,4.8-4.8c0-2.5-0.9-4.8-4.8-4.8c-1.1,0-2.7,0-4.1,0V38.9z"/>
				<path fill="#fff" d="M314.3,24.8c0.9-0.2,2.2-0.2,3-0.2c0.8,0,2,0,3,0.2v30.4c-1,0.2-2.1,0.2-3,0.2c-0.8,0-2.1,0-3-0.2V24.8z"/>
				<path fill="#fff" d="M332.4,48.3l-2.1,6.9c-0.8,0.2-1.6,0.2-2.6,0.2c-0.9,0-2.1-0.1-2.8-0.4l-0.2-0.3l9.9-30
					c1-0.1,2.4-0.2,3.5-0.2c0.9,0,2.5,0.1,3.4,0.3l9.8,30c-0.8,0.5-2.3,0.8-3.4,0.8c-1.9,0-2.8-0.7-3.6-3.2l-1.2-4.1
					c-0.7,0-1.7,0-2.2,0h-6.2C334.2,48.3,333.1,48.3,332.4,48.3z M333.9,43.6c0.6,0,1.6,0,2,0h3.8c0.4,0,1.2,0,1.9,0l-1.3-4.5
					c-0.8-2.5-1.7-6-2.4-8.6h-0.3c-0.4,2.3-1.4,5.5-2,7.5L333.9,43.6z"/>
				<path fill="#fff" d="M370.1,48.3l-2.1,6.9c-0.8,0.2-1.6,0.2-2.6,0.2c-0.9,0-2.1-0.1-2.8-0.4l-0.2-0.3l9.9-30
					c1-0.1,2.4-0.2,3.5-0.2c0.9,0,2.5,0.1,3.4,0.3l9.7,30c-0.8,0.5-2.3,0.8-3.4,0.8c-1.9,0-2.8-0.7-3.6-3.2l-1.2-4.1
					c-0.7,0-1.7,0-2.2,0h-6.2C371.8,48.3,370.8,48.3,370.1,48.3z M371.5,43.6c0.6,0,1.6,0,2,0h3.8c0.4,0,1.2,0,1.9,0l-1.3-4.5
					c-0.8-2.5-1.7-6-2.4-8.6h-0.3c-0.4,2.3-1.4,5.5-2,7.5L371.5,43.6z"/>
				<path fill="#fff" d="M394.7,24.8c1.3-0.2,3-0.3,4-0.3c1.1,0,2.5,0.1,3.8,0.3l3.4,12.3c0.3,1.2,1.4,5.8,1.7,7.6h0.3
					c0.3-1.8,1.4-6.4,1.7-7.6l3.4-12.3c1.3-0.2,2.8-0.3,3.8-0.3c1.1,0,2.7,0.1,4.1,0.3l2.4,30.3c-0.8,0.2-2,0.3-3,0.3
					c-0.9,0-1.8,0-2.6-0.2L416.7,41c-0.2-2.8-0.4-6.9-0.4-9.7h-0.3l-5.2,19.4c-0.9,0.1-2.2,0.2-3.1,0.2c-0.8,0-2.1-0.1-3-0.2
					l-5.2-19.4h-0.3c0,2.8-0.2,6.9-0.4,9.7L398,55.3c-0.8,0.1-1.7,0.2-2.7,0.2c-0.9,0-2.1-0.1-3-0.3L394.7,24.8z"/>
				<path fill="#fff" d="M434.4,48.3l-2.1,6.9c-0.8,0.2-1.6,0.2-2.6,0.2c-0.9,0-2.1-0.1-2.8-0.4l-0.2-0.3l9.9-30
					c1-0.1,2.4-0.2,3.5-0.2c0.9,0,2.5,0.1,3.4,0.3l9.7,30c-0.8,0.5-2.3,0.8-3.4,0.8c-1.9,0-2.8-0.7-3.6-3.2l-1.2-4.1
					c-0.7,0-1.7,0-2.2,0h-6.2C436.2,48.3,435.2,48.3,434.4,48.3z M435.9,43.6c0.6,0,1.6,0,2,0h3.8c0.4,0,1.2,0,1.9,0l-1.3-4.5
					c-0.8-2.5-1.7-6-2.4-8.6h-0.3c-0.4,2.3-1.4,5.5-2,7.5L435.9,43.6z"/>
				<path fill="#fff" d="M476.4,53.2c-2,1.6-5.6,2.2-8,2.2c-3.7,0-6.6-0.1-10.5-0.2l-0.3-0.3V25l0.3-0.3c3.8-0.1,6.8-0.2,10.5-0.2
					c2.4,0,6,0.6,8,2.2c4.1,3.3,4.9,8,4.9,13.2C481.2,45.2,480.5,49.9,476.4,53.2z M468.4,29.3c-1.7,0-3.1,0-4.9,0v21.5
					c1.8,0,3.2,0,4.9,0c5.8,0,6.7-5.8,6.7-10.7C475.1,35.1,474.2,29.3,468.4,29.3z"/>
				<path fill="#fff" d="M491,48.3l-2.1,6.9c-0.8,0.2-1.6,0.2-2.6,0.2c-0.9,0-2.1-0.1-2.8-0.4l-0.2-0.3l9.9-30
					c1-0.1,2.4-0.2,3.5-0.2c0.9,0,2.5,0.1,3.4,0.3l9.8,30c-0.8,0.5-2.3,0.8-3.4,0.8c-1.9,0-2.8-0.7-3.6-3.2l-1.2-4.1
					c-0.7,0-1.7,0-2.2,0h-6.2C492.8,48.3,491.7,48.3,491,48.3z M492.5,43.6c0.6,0,1.6,0,2,0h3.8c0.4,0,1.2,0,1.9,0l-1.3-4.5
					c-0.8-2.5-1.7-6-2.4-8.6h-0.3c-0.4,2.3-1.4,5.5-2,7.5L492.5,43.6z"/>
				<path fill="#fff" d="M255.2,14.4c0.9,0.5,2.1,1.9,2.4,3.2l-7.4,4.4c-0.7-0.3-1.4-1.3-1.6-2L255.2,14.4z"/>
			</g>
			<g>
				<path fill="#fff" d="M223.9,144.2l3.4,0c1.5,0,2.3,0.7,2.3,2.2v5.7c-1.9,0.6-3.8,0.9-5.9,0.9c-1,0-2-0.2-2.8-0.5
					c-0.8-0.3-1.5-0.8-2-1.5c-0.5-0.6-0.9-1.4-1.2-2.4c-0.3-0.9-0.4-2-0.4-3.2c0-1.3,0.2-2.5,0.6-3.4s0.9-1.8,1.5-2.4
					c0.6-0.6,1.4-1.1,2.2-1.5c0.8-0.3,1.7-0.5,2.6-0.5c1.9,0,3.6,0.5,5.3,1.6c0,0.2-0.1,0.5-0.2,0.7c-0.1,0.2-0.2,0.5-0.3,0.7
					c-0.1,0.2-0.3,0.4-0.5,0.6c-0.2,0.2-0.4,0.3-0.6,0.5c-1.2-0.8-2.4-1.2-3.6-1.2c-2.4,0-3.5,1.6-3.5,4.9c0,3.3,1.2,4.9,3.6,4.9
					c0.3,0,0.7,0,1,0c0.3,0,0.6-0.1,0.9-0.1v-1.4c0-0.3,0-0.6,0-0.9c0-0.2,0-0.5,0-0.6h-1.1c-0.6,0-1-0.1-1.3-0.4
					c-0.2-0.2-0.4-0.6-0.4-1.1C223.6,145.2,223.7,144.7,223.9,144.2z"/>
				<path fill="#fff" d="M241.2,151.6c-1.5-1.3-2.3-3.4-2.3-6.3c0-1.3,0.1-2.4,0.4-3.3c0.3-1,0.7-1.8,1.3-2.4c0.6-0.6,1.2-1.1,2-1.5
					c0.8-0.3,1.7-0.5,2.7-0.5c1,0,1.9,0.2,2.7,0.5c0.8,0.3,1.5,0.8,2,1.5c0.6,0.7,1,1.5,1.3,2.4c0.3,1,0.4,2.1,0.4,3.3
					c0,1.3-0.1,2.4-0.4,3.3c-0.3,1-0.7,1.8-1.3,2.4c-0.6,0.6-1.2,1.1-2,1.5c-0.8,0.3-1.7,0.5-2.7,0.5
					C243.6,153,242.3,152.5,241.2,151.6z M242.9,148.6c0.4,1.1,1.2,1.7,2.4,1.7c0.6,0,1.1-0.1,1.4-0.4c0.4-0.3,0.7-0.7,0.9-1.1
					c0.2-0.5,0.3-1,0.4-1.5c0.1-0.6,0.1-1.1,0.1-1.7c0-0.5,0-1.1-0.1-1.7c0-0.6-0.1-1.2-0.3-1.7c-0.2-0.5-0.4-1-0.8-1.4
					c-0.4-0.4-0.9-0.6-1.6-0.6c-0.7,0-1.2,0.2-1.6,0.5c-0.4,0.4-0.6,0.8-0.8,1.3c-0.2,0.5-0.3,1.1-0.3,1.7c0,0.6-0.1,1.1-0.1,1.5
					c0,0.7,0,1.3,0.1,1.8C242.6,147.5,242.7,148.1,242.9,148.6z"/>
				<path fill="#fff" d="M266.6,149.7l2.8-11.9c0.3-0.1,0.8-0.1,1.3-0.1c0.8,0,1.3,0.1,1.8,0.2l0.1,0.2l-4,14.5
					c-0.8,0.1-1.6,0.1-2.5,0.1c-0.8,0-1.4-0.1-1.8-0.3c-0.4-0.2-0.6-0.6-0.8-1.2l-3.6-13.1c0.8-0.3,1.4-0.5,1.9-0.5
					c0.6,0,1.1,0.1,1.3,0.4c0.3,0.3,0.5,0.7,0.7,1.3l1.7,6.2c0.3,1,0.5,2.3,0.8,3.9C266.4,149.7,266.4,149.7,266.6,149.7z"/>
				<path fill="#fff" d="M285.3,148.3l0,1.6v0c0.7,0,1.2,0,1.6,0h5c0,0.5,0,0.9-0.1,1.2c-0.2,1.1-0.9,1.7-2.2,1.7h-5.8
					c-0.6,0-1.1-0.2-1.5-0.5c-0.4-0.4-0.5-0.9-0.5-1.5V138l0.2-0.2h9.3c0.1,0.4,0.1,0.9,0.1,1.4s-0.1,1-0.3,1.5h-5.9l0,1.6v1.5
					c0.4,0,0.9,0,1.5,0h3.3c0.1,0.4,0.2,0.9,0.2,1.4c0,0.5-0.1,1-0.2,1.4h-4.8V148.3z"/>
				<path fill="#fff" d="M312.3,142.4c0,0.5-0.1,0.9-0.2,1.4c-0.1,0.4-0.3,0.8-0.6,1.1c-0.2,0.3-0.5,0.6-0.8,0.9
					c-0.3,0.3-0.7,0.4-1,0.6c0.8,0.3,1.3,0.9,1.7,2l0.6,1.8c0.2,0.7,0.6,1.3,1.1,1.6c-0.2,0.3-0.5,0.5-1,0.7
					c-0.4,0.2-0.9,0.3-1.4,0.3c-0.5,0-0.9-0.1-1.2-0.4c-0.3-0.3-0.6-0.8-0.8-1.5l-0.8-2.3c-0.2-0.4-0.4-0.8-0.6-1
					c-0.3-0.2-0.7-0.3-1.2-0.3h-0.9v5.4c-0.5,0.1-1,0.1-1.7,0.1c-0.7,0-1.3,0-1.7-0.1V138l0.2-0.2c1.3,0,2.3,0,3.2-0.1
					c0.9,0,1.5,0,2,0c0.8,0,1.5,0.1,2.2,0.3c0.6,0.2,1.2,0.5,1.7,0.9c0.5,0.4,0.8,0.9,1.1,1.5C312.2,141,312.3,141.6,312.3,142.4z
					 M305.2,140.3v4.3c0.6,0,1.2,0,1.7,0c0.5,0,0.8-0.1,1.1-0.3c0.3-0.2,0.5-0.4,0.6-0.6c0.1-0.3,0.2-0.7,0.2-1.2
					c0-1.4-0.7-2.1-2-2.1c-0.3,0-0.6,0-0.9,0C305.6,140.3,305.4,140.3,305.2,140.3z"/>
				<path fill="#fff" d="M334.1,137.7l0.2,0.2v14.7c-0.6,0.1-1.3,0.2-2,0.2s-1.5,0-2.1-0.1l-3.4-7.7c-0.4-0.9-0.8-1.9-1.2-3.1
					l-0.1,0c0.2,2.1,0.3,4.3,0.3,6.5v4.3c-0.4,0.1-1,0.1-1.6,0.1c-0.6,0-1.2,0-1.6-0.1v-14.7c0.5-0.1,1.2-0.2,2-0.2s1.5,0,2.1,0.1
					l3.4,7.7c0.6,1.4,1.1,2.5,1.3,3.3l0.1,0c-0.2-2-0.3-4.1-0.3-6.4v-2.6c0-0.8,0.2-1.3,0.5-1.6c0.3-0.3,0.8-0.5,1.5-0.5H334.1z"/>
				<path fill="#fff" d="M346.4,151.6c-1.5-1.3-2.3-3.4-2.3-6.3c0-1.3,0.1-2.4,0.4-3.3c0.3-1,0.7-1.8,1.3-2.4c0.6-0.6,1.2-1.1,2-1.5
					c0.8-0.3,1.7-0.5,2.7-0.5c1,0,1.9,0.2,2.7,0.5c0.8,0.3,1.5,0.8,2,1.5c0.6,0.7,1,1.5,1.3,2.4c0.3,1,0.4,2.1,0.4,3.3
					c0,1.3-0.1,2.4-0.4,3.3c-0.3,1-0.7,1.8-1.3,2.4c-0.6,0.6-1.2,1.1-2,1.5c-0.8,0.3-1.7,0.5-2.7,0.5
					C348.9,153,347.5,152.5,346.4,151.6z M348.1,148.6c0.4,1.1,1.2,1.7,2.4,1.7c0.6,0,1.1-0.1,1.4-0.4c0.4-0.3,0.7-0.7,0.9-1.1
					c0.2-0.5,0.3-1,0.4-1.5c0.1-0.6,0.1-1.1,0.1-1.7c0-0.5,0-1.1-0.1-1.7c0-0.6-0.1-1.2-0.3-1.7c-0.2-0.5-0.4-1-0.8-1.4
					c-0.4-0.4-0.9-0.6-1.6-0.6c-0.7,0-1.2,0.2-1.6,0.5c-0.4,0.4-0.6,0.8-0.8,1.3c-0.2,0.5-0.3,1.1-0.3,1.7c0,0.6-0.1,1.1-0.1,1.5
					c0,0.7,0,1.3,0.1,1.8C347.9,147.5,348,148.1,348.1,148.6z"/>
				<path fill="#fff" d="M382.4,140.8l0,1.7v1.4h4.7c0.1,0.4,0.2,0.9,0.2,1.4s-0.1,1-0.2,1.4h-4.7v6c-0.5,0.1-1,0.1-1.7,0.1
					c-0.7,0-1.3,0-1.7-0.1V138l0.2-0.1h9.3c0.1,0.4,0.1,0.8,0.1,1.4s-0.1,0.9-0.4,1.2c-0.3,0.3-0.8,0.4-1.4,0.4H382.4z"/>
				<path fill="#fff" d="M401.4,148.3l0,1.6v0c0.7,0,1.2,0,1.6,0h5c0,0.5,0,0.9-0.1,1.2c-0.2,1.1-0.9,1.7-2.2,1.7H400
					c-0.6,0-1.1-0.2-1.5-0.5c-0.4-0.4-0.5-0.9-0.5-1.5V138l0.2-0.2h9.3c0.1,0.4,0.1,0.9,0.1,1.4s-0.1,1-0.3,1.5h-5.9l0,1.6v1.5
					c0.4,0,0.9,0,1.5,0h3.3c0.1,0.4,0.2,0.9,0.2,1.4c0,0.5-0.1,1-0.2,1.4h-4.8V148.3z"/>
				<path fill="#fff" d="M427.4,151.7c-0.5,0.4-1.1,0.6-1.8,0.8c-0.8,0.2-1.6,0.3-2.5,0.3c-0.4,0-1.1,0-1.9,0c-0.8,0-1.9,0-3.2-0.1
					l-0.2-0.2V138l0.2-0.2c0.8,0,1.7,0,2.6-0.1c0.9,0,1.9,0,2.8,0c1.2,0,2.3,0.2,3.1,0.6s1.5,0.9,2,1.6s0.8,1.5,1,2.4
					c0.2,0.9,0.3,1.9,0.3,3c0,1.4-0.2,2.7-0.5,3.7C429,150.1,428.3,151,427.4,151.7z M423.4,150.1c1.9,0,2.9-1.6,2.9-4.8
					c0-3.2-1-4.8-2.9-4.8c-0.5,0-0.9,0-1.2,0c-0.4,0-0.7,0-0.9,0v9.7c0.3,0,0.6,0,0.9,0C422.5,150.1,422.9,150.1,423.4,150.1z"/>
				<path fill="#fff" d="M443.1,148.3l0,1.6v0c0.7,0,1.2,0,1.6,0h5c0,0.5,0,0.9-0.1,1.2c-0.2,1.1-0.9,1.7-2.2,1.7h-5.8
					c-0.6,0-1.1-0.2-1.5-0.5c-0.4-0.4-0.5-0.9-0.5-1.5V138l0.2-0.2h9.3c0.1,0.4,0.1,0.9,0.1,1.4s-0.1,1-0.3,1.5h-5.9l0,1.6v1.5
					c0.4,0,0.9,0,1.5,0h3.3c0.1,0.4,0.2,0.9,0.2,1.4c0,0.5-0.1,1-0.2,1.4h-4.8V148.3z"/>
				<path fill="#fff" d="M470.1,142.4c0,0.5-0.1,0.9-0.2,1.4s-0.3,0.8-0.6,1.1c-0.2,0.3-0.5,0.6-0.8,0.9c-0.3,0.3-0.7,0.4-1,0.6
					c0.8,0.3,1.3,0.9,1.7,2l0.6,1.8c0.2,0.7,0.6,1.3,1.1,1.6c-0.2,0.3-0.5,0.5-1,0.7c-0.4,0.2-0.9,0.3-1.4,0.3
					c-0.5,0-0.9-0.1-1.2-0.4c-0.3-0.3-0.6-0.8-0.8-1.5l-0.8-2.3c-0.2-0.4-0.4-0.8-0.6-1s-0.7-0.3-1.2-0.3h-0.9v5.4
					c-0.5,0.1-1,0.1-1.7,0.1s-1.3,0-1.7-0.1V138l0.2-0.2c1.3,0,2.3,0,3.2-0.1c0.9,0,1.5,0,2,0c0.8,0,1.5,0.1,2.2,0.3
					c0.6,0.2,1.2,0.5,1.7,0.9c0.5,0.4,0.8,0.9,1.1,1.5C470,141,470.1,141.6,470.1,142.4z M462.9,140.3v4.3c0.6,0,1.2,0,1.7,0
					c0.5,0,0.8-0.1,1.1-0.3c0.3-0.2,0.5-0.4,0.6-0.6c0.1-0.3,0.2-0.7,0.2-1.2c0-1.4-0.7-2.1-2-2.1c-0.3,0-0.6,0-0.9,0
					C463.4,140.3,463.1,140.3,462.9,140.3z"/>
				<path fill="#fff" d="M483.8,149.5c-0.4,0-0.7,0-0.9,0l-0.9,3.1c-0.3,0.1-0.8,0.1-1.4,0.1c-0.7,0-1.3-0.1-1.7-0.2l-0.1-0.2
					l4.8-14.5c0.6-0.1,1.2-0.1,2-0.1c0.9,0,1.5,0.1,2,0.2l4.7,14.5c-0.5,0.3-1.1,0.4-1.7,0.4c-0.8,0-1.3-0.1-1.6-0.4
					c-0.3-0.3-0.6-0.8-0.8-1.5l-0.4-1.4c-0.2,0-0.5,0-0.8,0H483.8z M483.8,146.8l0.9,0h1.6c0.1,0,0.2,0,0.4,0c0.2,0,0.3,0,0.4,0
					l-0.4-1.3c-0.3-1.2-0.7-2.7-1.2-4.5h-0.1c-0.1,0.6-0.5,2-1,4.1L483.8,146.8z"/>
				<path fill="#fff" d="M506.9,149.7h3.8c0,0.6,0,1.1-0.1,1.5c-0.1,0.4-0.3,0.8-0.7,1.1c-0.4,0.3-0.9,0.4-1.5,0.4h-4.9
					c-0.6,0-1.1-0.2-1.5-0.5c-0.4-0.4-0.5-0.9-0.5-1.5v-12.8l0.2-0.2h1.3c1.3,0,2,0.7,2,2.2v9.9
					C505.5,149.7,506.2,149.7,506.9,149.7z"/>
			</g>
		</g>
	</g>
	<path fill="#fff" d="M100.3,75.3L100.3,75.3c0.9,0,1.9,0,2.8,0.1C102.2,75.3,101.3,75.3,100.3,75.3z"/>
	<path fill="#fff" d="M103.2,75.4c1.9,0.1,3.7,0.2,5.5,0.5C106.9,75.6,105,75.4,103.2,75.4z"/>
	<path fill="#fff" d="M140.5,88.7c-1.4-1.1-2.8-2.1-4.3-3C137.7,86.7,139.2,87.7,140.5,88.7L140.5,88.7z"/>
	<g>
		<path fill="#fff" d="M128.8,84.6c-1.6-0.7-3.2-1.4-4.8-2.1c-4.9-1.9-10.1-3.2-15.4-3.9c-1.8-0.2-3.6-0.4-5.4-0.4
			c-0.9,0-1.8-0.1-2.8-0.1c-4,0-8,0.4-11.9,1.1c-2.9,0.5-5.7,1.3-8.5,2.2c-1.8,0.6-3.6,1.3-5.4,2c-3.5,1.5-6.9,3.3-10,5.4
			c-1.6,1-3.1,2.1-4.6,3.3c-11.3,8.9-19.4,21.4-23,35.2c-0.2,0.7-0.4,1.5-0.5,2.2c21.8-14,56-31.6,100.4-40.3
			c-0.5-0.3-0.9-0.6-1.4-0.9C133.4,87,131.1,85.7,128.8,84.6z"/>
	</g>
	<polygon fill="#fff" points="89.8,36.1 89.8,36.1 198.9,84.2 198.9,84.2 	"/>
	<path fill="#fff" d="M59,89.6c1.5-1.2,3.1-2.3,4.7-3.4C62.1,87.3,60.5,88.4,59,89.6z"/>
	<path fill="#fff" d="M157.3,107c-61,3.5-103,22.9-124,35.3c-9.4,5.5-14.6,9.6-15.5,10.4v0.1h181.1v-45.7
		C184.2,106.2,170.3,106.3,157.3,107z"/>
	<rect x="17.7" y="24.6" fill="#fff" width="181.1" height="0"/>
	<path fill="#fff" d="M34.3,131.4c0.3-2,0.7-3.9,1.2-5.8c3.7-14.5,12.1-27,23.5-36c1.5-1.2,3.1-2.3,4.7-3.4c3.2-2.1,6.7-4,10.3-5.5
		c1.8-0.8,3.6-1.5,5.5-2.1c2.8-0.9,5.7-1.7,8.7-2.2c4-0.7,8-1.1,12.2-1.1l0,0l0,0c0.9,0,1.9,0,2.8,0.1c1.9,0.1,3.7,0.2,5.5,0.5
		c5.5,0.7,10.7,2,15.7,3.9c1.7,0.6,3.3,1.3,4.9,2.1c2.4,1.1,4.7,2.4,6.9,3.9c1.5,0.9,2.9,1.9,4.3,3c4.5-0.8,9.1-1.6,13.7-2.2
		c11.7-1.6,24-2.4,36.9-2.4c2.5,0,5.1,0,7.7,0.1l-109-48.1L17.7,94.3v49.3c1-0.8,6.6-5.6,16.4-12C34.2,131.5,34.2,131.5,34.3,131.4z
		"/>
	<path fill="#fff" d="M88,33.9c0.5-0.4,1.1-0.6,1.8-0.6c0.4,0,0.8,0.1,1.1,0.2l107.9,47.6V24.6H17.7v66L88,33.9z"/>
	<polygon fill="#fff" points="198.9,84.2 198.9,84.2 198.9,84.2 	"/>
	<polygon fill="#fff" points="198.9,84.2 198.9,84.2 198.9,84.2 	"/>
	<path fill="#fff" d="M28.7,135.3c-1.7,1.2-3.1,2.3-4.4,3.2C25.6,137.6,27.1,136.5,28.7,135.3z"/>
	<path fill="#fff" d="M34.3,131.5c-2,1.3-3.9,2.6-5.5,3.8C30.4,134.1,32.2,132.9,34.3,131.5c0,0,0-0.1,0-0.1c0,0,0,0,0,0
		C34.3,131.5,34.3,131.5,34.3,131.5z"/>
	<path fill="#fff" d="M191.2,84.1c2.6,0,5.1,0,7.7,0.1l0,0C196.3,84.2,193.7,84.1,191.2,84.1z"/>
	<path fill="#fff" d="M24.3,138.5c1.3-1,2.8-2,4.4-3.2c1.7-1.2,3.5-2.4,5.5-3.8c0,0,0-0.1,0-0.1c-0.1,0-0.1,0.1-0.2,0.1
		c-9.8,6.5-15.4,11.2-16.4,12v0.1C17.7,143.7,20,141.7,24.3,138.5z"/>
</g>
</svg>
