<?xml version="1.0" encoding="utf-8"?>
<!-- Generator: Adobe Illustrator 22.0.1, SVG Export Plug-In . SVG Version: 6.00 Build 0)  -->
<svg version="1.1" id="Layer_1" xmlns="http://www.w3.org/2000/svg" xmlns:xlink="http://www.w3.org/1999/xlink" x="0px" y="0px"
	 viewBox="0 0 636.2 184.2" style="enable-background:new 0 0 636.2 184.2;" xml:space="preserve">
<style type="text/css">
	.st0{fill:#FFFFFF;}
</style>
<g>
	<path class="st0" d="M319.1,0.9h12.8c7.4,0,11,4.1,11,12.1v33.3c0,8-3.9,12.1-11.6,12.1h-12.2L319.1,0.9L319.1,0.9z M327.3,9.1
		v41.1h3.6c2.4,0,3.6-1.3,3.6-3.9V13c0-2.6-1.2-3.9-3.6-3.9C331,9.1,327.3,9.1,327.3,9.1z"/>
	<path class="st0" d="M349.9,0.9h21.5v8.2h-13.2v24.1h11.4v8.2h-11.4v8.8h13.2v8.2h-21.5V0.9z"/>
	<path class="st0" d="M377.6,0.9h12.1c7.4,0,11,4.1,11,12.1v16.2c0,5.9-2.6,9.8-7.9,11.5c-1.3,0.4-3.1,0.6-5.5,0.6h-1.3v17.1h-8.3
		L377.6,0.9L377.6,0.9z M385.8,9.1v24h1.9c1.2,0,1.9-0.1,2.4-0.2c1.5-0.6,2.3-1.8,2.3-3.7V13c0-2.6-1.2-3.9-3.6-3.9
		C388.8,9.1,385.8,9.1,385.8,9.1z"/>
	<path class="st0" d="M430.1,47.2c0,8-4,12.1-11.9,12.1c-7.9,0-11.9-4-11.9-12.1V12.1c0-8,4-12.1,11.9-12.1c7.9,0,11.9,4,11.9,12.1
		V47.2z M421.8,12.1c0-2.6-1.2-3.9-3.6-3.9h-0.1c-2.4,0-3.6,1.3-3.6,3.9v35.2c0,2.6,1.2,3.9,3.6,3.9c2.4,0,3.6-1.3,3.6-3.9V12.1z"/>
	<path class="st0" d="M437.2,0.9h8.3v57.5h-8.3V0.9z"/>
	<path class="st0" d="M471.3,40.3L481,0.9h8.3v57.5h-7.9V26.1l-7.1,32.3h-5.6l-7.3-32.3v32.3h-8V0.9h8.3L471.3,40.3z"/>
	<path class="st0" d="M496.9,0.9h21.5v8.2h-13.2v24.1h11.4v8.2h-11.4v8.8h13.2v8.2h-21.5V0.9z"/>
	<path class="st0" d="M524.5,0.9h8.3l7.9,33.3V0.9h7.7v57.5h-8.3l-7.6-32.3v32.3h-8V0.9z"/>
	<path class="st0" d="M577.5,0.9v8.2h-7.8v49.3h-8.3V9.1h-7.8V0.9H577.5z"/>
	<path class="st0" d="M606,47.2c0,8-4,12.1-11.9,12.1c-7.9,0-11.9-4-11.9-12.1V12.1c0-8,4-12.1,11.9-12.1C602,0,606,4,606,12.1V47.2
		z M597.7,12.1c0-2.6-1.2-3.9-3.6-3.9H594c-2.4,0-3.6,1.3-3.6,3.9v35.2c0,2.6,1.2,3.9,3.6,3.9c2.4,0,3.6-1.3,3.6-3.9V12.1z"/>
	<path class="st0" d="M620.7,41.5v5.8c0,2.6,1.2,3.9,3.6,3.9c2.4,0,3.6-1.3,3.6-3.9v-1.1c0-2.8-2.6-6-7.8-9.7
		c-5.2-3.7-7.8-8.2-7.8-13.5V12.1c0-8,4-12.1,11.9-12.1c7.9,0,11.9,4,11.9,12.1v7.7h-8.3v-7.7c0-2.6-1.2-3.9-3.6-3.9h-0.1
		c-2.4,0-3.6,1.3-3.6,3.9v10.7c0,2.6,2.6,5.7,7.8,9.4c5.2,3.7,7.8,8.1,7.8,13.3v1.8c0,8.1-4,12.1-11.9,12.1
		c-7.9,0-11.9-4.1-11.9-12.1v-5.8C612.4,41.5,620.7,41.5,620.7,41.5z"/>
</g>
<g>
	<path class="st0" d="M0,74.8h22.6c13.8,0,20.7,7.6,20.7,22.7v30.3c0,11.1-5,18.3-14.9,21.5c-2.4,0.8-5.8,1.2-10.4,1.2h-2.5v32H0
		V74.8z M15.5,90.1v45h3.6c2.2,0,3.6-0.1,4.4-0.4c2.8-1.1,4.2-3.4,4.2-6.9V97.4c0-4.9-2.2-7.4-6.7-7.4L15.5,90.1L15.5,90.1z"/>
	<path class="st0" d="M54.8,74.8h22.6c13.8,0,20.7,7.6,20.7,22.7v30.5c0,9.5-4.1,15.7-12.2,18.7l17.4,35.8h-17l-14-33l-2,0.3v32.8
		H54.8V74.8z M70.3,90.1v45.1h3.6c2.2,0,3.6-0.1,4.4-0.4c2.8-1.1,4.2-3.4,4.2-6.9V97.4c0-4.9-2.2-7.4-6.7-7.4L70.3,90.1L70.3,90.1z"
		/>
	<path class="st0" d="M155.6,161.5c0,15.1-7.4,22.6-22.3,22.7c-14.8,0-22.3-7.6-22.3-22.7V95.7c0-15.1,7.4-22.6,22.3-22.6
		c14.9,0,22.3,7.5,22.3,22.6V161.5z M140.1,95.7c0-4.8-2.2-7.3-6.7-7.3h-0.1c-4.5,0-6.7,2.4-6.7,7.3v65.8c0,4.9,2.2,7.3,6.7,7.3
		c4.5,0,6.8-2.4,6.8-7.3V95.7z"/>
	<path class="st0" d="M201.1,182.4h-21.3l-11-69.6l-5-38.1h15.7l10.9,82.9l11-82.9h15.7l-5,38.2L201.1,182.4z"/>
	<path class="st0" d="M269.9,161.5c0,15.1-7.4,22.6-22.3,22.7c-14.8,0-22.3-7.6-22.3-22.7V95.7c0-15.1,7.4-22.6,22.3-22.6
		c14.9,0,22.3,7.5,22.3,22.6V161.5z M254.4,95.7c0-4.8-2.2-7.3-6.7-7.3h-0.1c-4.5,0-6.7,2.4-6.7,7.3v65.8c0,4.9,2.2,7.3,6.7,7.3
		c4.5,0,6.8-2.4,6.8-7.3V95.7z"/>
	<path class="st0" d="M326.6,150.9v10.6c0,15.1-7.4,22.6-22.3,22.7c-14.8,0-22.3-7.6-22.3-22.7V95.7c0-15.1,7.4-22.6,22.3-22.6
		c14.9,0,22.3,7.5,22.3,22.6v14.5H311V95.7c0-4.8-2.2-7.3-6.7-7.3h-0.1c-4.5,0-6.7,2.4-6.7,7.3v65.8c0,4.9,2.2,7.3,6.7,7.3
		c4.5,0,6.8-2.4,6.8-7.3v-10.6L326.6,150.9L326.6,150.9z"/>
	<path class="st0" d="M360.9,99.5l-11,82.9h-15.6l16-107.6h21.3l16,107.6h-15.7L360.9,99.5z"/>
	<path class="st0" d="M435.4,74.8v15.3h-14.5v92.3h-15.5V90.1h-14.5V74.8H435.4z"/>
	<path class="st0" d="M445.5,74.8H461v107.6h-15.5V74.8z"/>
	<path class="st0" d="M507.9,182.4h-21.3l-11-69.6l-5-38.1h15.7l10.9,82.9l11-82.9h15.7l-5,38.2L507.9,182.4z"/>
	<path class="st0" d="M576.7,161.5c0,15.1-7.4,22.6-22.3,22.7c-14.8,0-22.3-7.6-22.3-22.7V95.7c0-15.1,7.4-22.6,22.3-22.6
		c14.9,0,22.3,7.5,22.3,22.6V161.5z M561.2,95.7c0-4.8-2.2-7.3-6.7-7.3h-0.1c-4.5,0-6.7,2.4-6.7,7.3v65.8c0,4.9,2.2,7.3,6.7,7.3
		c4.5,0,6.8-2.4,6.8-7.3L561.2,95.7L561.2,95.7z"/>
	<path class="st0" d="M604.3,150.7v10.8c0,4.9,2.3,7.3,6.8,7.3c4.5,0,6.7-2.4,6.7-7.3v-2c0-5.2-4.8-11.3-14.5-18.2
		c-9.7-6.9-14.5-15.3-14.5-25.2V95.7c0-15.1,7.4-22.6,22.3-22.6c14.9,0,22.3,7.5,22.3,22.6v14.5h-15.5V95.7c0-4.8-2.2-7.3-6.7-7.3
		H611c-4.5,0-6.7,2.4-6.7,7.3v20.1c0,4.8,4.8,10.7,14.5,17.6c9.7,6.9,14.5,15.2,14.5,24.9v3.3c0,15.1-7.4,22.7-22.3,22.7
		c-14.9,0-22.3-7.6-22.3-22.7v-10.8L604.3,150.7L604.3,150.7z"/>
</g>
<g>
	<path class="st0" d="M136.8,18.6h-8l-1.8,4.9h-2.6l7.4-19h2.2l7.2,19h-2.6L136.8,18.6z M129.6,16.4h6.4l-3.1-8.7h-0.1L129.6,16.4z"
		/>
	<path class="st0" d="M150.1,11.6l-1.3-0.1c-0.7,0-1.3,0.2-1.7,0.5c-0.5,0.3-0.8,0.8-1.1,1.4v10.1h-2.6V9.3h2.3l0.2,2.1
		c0.4-0.7,0.9-1.3,1.5-1.7s1.3-0.6,2-0.6c0.2,0,0.4,0,0.5,0s0.3,0.1,0.4,0.1L150.1,11.6z"/>
	<path class="st0" d="M156.2,5.9v3.4h2.7v1.9h-2.7v8.6c0,0.7,0.1,1.1,0.4,1.4c0.3,0.3,0.6,0.4,1.1,0.4c0.1,0,0.3,0,0.5-0.1
		c0.2,0,0.3-0.1,0.5-0.1l0.3,1.8c-0.2,0.2-0.5,0.3-0.8,0.4s-0.7,0.1-1.1,0.1c-1,0-1.9-0.3-2.5-0.9c-0.6-0.6-0.9-1.6-0.9-3v-8.6h-2.2
		V9.3h2.2V5.9H156.2z"/>
	<path class="st0" d="M167.9,23.8c-2,0-3.5-0.7-4.7-2s-1.7-3-1.7-5.1v-0.6c0-2,0.6-3.7,1.8-5c1.2-1.3,2.6-2,4.3-2
		c1.9,0,3.4,0.6,4.3,1.7c1,1.2,1.5,2.7,1.5,4.6V17h-9.2l0,0.1c0,1.4,0.4,2.5,1,3.3s1.6,1.3,2.8,1.3c0.9,0,1.6-0.1,2.3-0.4
		c0.7-0.2,1.2-0.6,1.7-1l1,1.7c-0.5,0.5-1.2,0.9-2,1.3S169.1,23.8,167.9,23.8z M167.5,11.1c-0.9,0-1.6,0.4-2.2,1.1
		c-0.6,0.7-1,1.6-1.1,2.7l0,0.1h6.5v-0.3c0-1-0.3-1.9-0.8-2.5C169.4,11.4,168.6,11.1,167.5,11.1z"/>
	<path class="st0" d="M176.7,25.1h-2.2l8-20.7h2.2L176.7,25.1z"/>
	<path class="st0" d="M199.1,14.7h-8.7v6.8h10.1v2h-12.6v-19h12.5v2h-9.9v6.2h8.7L199.1,14.7L199.1,14.7z"/>
	<path class="st0" d="M202.1,16.7c0-2.3,0.5-4.1,1.5-5.5c1-1.4,2.3-2.1,4.1-2.1c0.8,0,1.6,0.2,2.2,0.5s1.2,0.8,1.6,1.3V3.1h2.6v20.4
		H212l-0.3-1.7c-0.5,0.7-1,1.2-1.7,1.5c-0.7,0.3-1.5,0.5-2.3,0.5c-1.7,0-3.1-0.6-4.1-1.9s-1.5-2.9-1.5-4.9V16.7z M204.7,16.9
		c0,1.4,0.3,2.6,0.9,3.4c0.6,0.9,1.5,1.3,2.7,1.3c0.8,0,1.4-0.2,1.9-0.5s1-0.8,1.3-1.5v-6.6c-0.3-0.6-0.8-1-1.3-1.4
		s-1.2-0.5-1.9-0.5c-1.2,0-2.2,0.5-2.7,1.5s-0.9,2.3-0.9,4V16.9z"/>
	<path class="st0" d="M226.9,21.4c-0.4,0.8-1,1.3-1.7,1.8c-0.7,0.4-1.5,0.6-2.4,0.6c-1.5,0-2.7-0.5-3.6-1.5c-0.9-1-1.3-2.5-1.3-4.6
		V9.3h2.6v8.4c0,1.5,0.2,2.5,0.7,3.1s1.1,0.9,2.1,0.9c0.9,0,1.7-0.2,2.3-0.6c0.6-0.4,1-0.9,1.4-1.6V9.3h2.6v14.2h-2.3L226.9,21.4z"
		/>
	<path class="st0" d="M238.9,21.7c0.9,0,1.6-0.3,2.3-0.8c0.6-0.5,1-1.2,1-1.9h2.3l0,0.1c0,1.2-0.5,2.3-1.6,3.3
		c-1.1,1-2.4,1.4-3.9,1.4c-2.1,0-3.6-0.7-4.7-2c-1.1-1.3-1.6-3-1.6-5.1v-0.5c0-2,0.5-3.7,1.6-5c1.1-1.3,2.7-2,4.7-2
		c1.7,0,3,0.5,4.1,1.5c1.1,1,1.6,2.2,1.5,3.6l0,0.1h-2.3c0-0.9-0.3-1.6-0.9-2.2s-1.4-0.9-2.3-0.9c-1.4,0-2.3,0.5-2.9,1.5
		c-0.6,1-0.9,2.2-0.9,3.6v0.5c0,1.4,0.3,2.6,0.9,3.6S237.6,21.7,238.9,21.7z"/>
	<path class="st0" d="M256.1,23.5c-0.1-0.4-0.2-0.8-0.2-1.1s-0.1-0.7-0.1-1c-0.5,0.7-1.1,1.2-1.9,1.7s-1.6,0.7-2.5,0.7
		c-1.5,0-2.6-0.4-3.4-1.1c-0.8-0.8-1.2-1.8-1.2-3.1c0-1.4,0.5-2.4,1.6-3.2c1.1-0.8,2.6-1.1,4.5-1.1h2.8v-1.4c0-0.8-0.3-1.5-0.8-2
		s-1.2-0.7-2.1-0.7c-0.8,0-1.5,0.2-2,0.6c-0.5,0.4-0.8,0.9-0.8,1.5h-2.5l0-0.1c-0.1-1,0.4-2,1.5-2.8s2.3-1.3,4-1.3
		c1.6,0,2.9,0.4,3.9,1.2c1,0.8,1.5,2,1.5,3.5v6.8c0,0.5,0,1,0.1,1.5s0.1,0.9,0.3,1.4H256.1z M251.8,21.6c0.9,0,1.8-0.2,2.5-0.7
		c0.8-0.5,1.2-1,1.5-1.6v-2.3h-2.9c-1,0-1.9,0.3-2.5,0.8c-0.6,0.5-0.9,1.1-0.9,1.8c0,0.6,0.2,1.1,0.6,1.5S251.1,21.6,251.8,21.6z"/>
	<path class="st0" d="M267.9,21.7c0.9,0,1.6-0.3,2.3-0.8c0.6-0.5,1-1.2,1-1.9h2.3l0,0.1c0,1.2-0.5,2.3-1.6,3.3
		c-1.1,1-2.4,1.4-3.9,1.4c-2.1,0-3.6-0.7-4.7-2c-1.1-1.3-1.6-3-1.6-5.1v-0.5c0-2,0.5-3.7,1.6-5c1.1-1.3,2.7-2,4.7-2
		c1.7,0,3,0.5,4.1,1.5c1.1,1,1.6,2.2,1.5,3.6l0,0.1h-2.3c0-0.9-0.3-1.6-0.9-2.2s-1.4-0.9-2.3-0.9c-1.4,0-2.3,0.5-2.9,1.5
		c-0.6,1-0.9,2.2-0.9,3.6v0.5c0,1.4,0.3,2.6,0.9,3.6S266.5,21.7,267.9,21.7z M268.3,23.6l-0.2,0.7c0.6,0.1,1,0.3,1.4,0.7
		c0.4,0.4,0.6,0.9,0.6,1.6c0,0.8-0.3,1.5-1,2c-0.7,0.5-1.7,0.7-3,0.7l-0.1-1.4c0.6,0,1.1-0.1,1.5-0.3c0.4-0.2,0.6-0.5,0.6-1
		c0-0.4-0.2-0.7-0.5-0.9s-0.9-0.3-1.6-0.3l0.4-1.8C266.5,23.6,268.3,23.6,268.3,23.6z"/>
	<path class="st0" d="M285.1,23.5c-0.1-0.4-0.2-0.8-0.2-1.1s-0.1-0.7-0.1-1c-0.5,0.7-1.1,1.2-1.9,1.7s-1.6,0.7-2.5,0.7
		c-1.5,0-2.6-0.4-3.4-1.1c-0.8-0.8-1.2-1.8-1.2-3.1c0-1.4,0.5-2.4,1.6-3.2c1.1-0.8,2.6-1.1,4.5-1.1h2.8v-1.4c0-0.8-0.3-1.5-0.8-2
		s-1.2-0.7-2.1-0.7c-0.8,0-1.5,0.2-2,0.6c-0.5,0.4-0.8,0.9-0.8,1.5h-2.5l0-0.1c-0.1-1,0.4-2,1.5-2.8s2.3-1.3,4-1.3
		c1.6,0,2.9,0.4,3.9,1.2c1,0.8,1.5,2,1.5,3.5v6.8c0,0.5,0,1,0.1,1.5s0.1,0.9,0.3,1.4H285.1z M286.3,3.6c0,0.8-0.3,1.5-0.8,2.1
		c-0.5,0.6-1.2,0.9-2,0.9c-0.6,0-1.3-0.2-1.9-0.6c-0.7-0.4-1.2-0.6-1.7-0.6c-0.4,0-0.7,0.1-0.9,0.4c-0.3,0.3-0.4,0.6-0.4,1l-1.4-0.3
		c0-0.8,0.3-1.5,0.8-2.1s1.2-0.9,2-0.9c0.5,0,1.1,0.2,1.8,0.6c0.7,0.4,1.3,0.6,1.8,0.6c0.4,0,0.7-0.1,0.9-0.4c0.3-0.3,0.4-0.6,0.4-1
		L286.3,3.6z M280.8,21.6c0.9,0,1.8-0.2,2.5-0.7c0.8-0.5,1.2-1,1.5-1.6v-2.3h-2.9c-1,0-1.9,0.3-2.5,0.8c-0.6,0.5-0.9,1.1-0.9,1.8
		c0,0.6,0.2,1.1,0.6,1.5S280,21.6,280.8,21.6z"/>
	<path class="st0" d="M290.5,16.3c0-2.1,0.6-3.8,1.7-5.2c1.1-1.4,2.7-2,4.6-2c2,0,3.5,0.7,4.7,2s1.7,3.1,1.7,5.2v0.3
		c0,2.1-0.6,3.8-1.7,5.2c-1.1,1.3-2.7,2-4.6,2c-2,0-3.5-0.7-4.6-2s-1.7-3.1-1.7-5.2L290.5,16.3L290.5,16.3z M293.1,16.6
		c0,1.5,0.3,2.7,0.9,3.7s1.6,1.5,2.8,1.5c1.2,0,2.2-0.5,2.8-1.5s1-2.2,1-3.7v-0.3c0-1.5-0.3-2.7-1-3.7s-1.6-1.5-2.8-1.5
		c-1.2,0-2.2,0.5-2.8,1.5s-0.9,2.2-0.9,3.7L293.1,16.6L293.1,16.6z"/>
</g>
<g>
	<path class="st0" d="M2,58.5H0.4V39.7H2C2,39.7,2,58.5,2,58.5z"/>
	<path class="st0" d="M21,58.5h-1.5L8.8,42.3l-0.1,0v16.1H7.2V39.7h1.5l10.7,16.1l0.1,0V39.7H21L21,58.5L21,58.5z"/>
	<path class="st0" d="M38.2,41h-6.5v17.5h-1.5V41h-6.5v-1.3h14.5V41z"/>
	<path class="st0" d="M51.8,49.4h-9v7.8h10.4v1.3H41.2V39.7H53V41H42.8v7.1h9V49.4z"/>
	<path class="st0" d="M57.9,50v8.5h-1.5V39.7h6.4c2,0,3.6,0.4,4.6,1.3s1.6,2.2,1.6,3.9c0,1-0.3,1.9-0.9,2.7
		c-0.6,0.8-1.4,1.4-2.4,1.7c1.2,0.3,2,0.8,2.5,1.6c0.5,0.8,0.8,1.7,0.8,2.8v1.8c0,0.6,0.1,1.1,0.2,1.6c0.1,0.5,0.4,0.8,0.7,1.1v0.3
		h-1.6c-0.3-0.3-0.5-0.7-0.7-1.3s-0.2-1.1-0.2-1.7v-1.7c0-1.2-0.4-2.1-1.1-2.7c-0.7-0.7-1.8-1-3.1-1L57.9,50L57.9,50z M57.9,48.7
		h4.6c1.7,0,2.9-0.3,3.7-1c0.8-0.7,1.2-1.6,1.2-2.8c0-1.2-0.4-2.2-1.2-2.9c-0.8-0.7-2-1-3.5-1h-4.8L57.9,48.7L57.9,48.7z"/>
	<path class="st0" d="M75.8,39.7l6.9,16.5h0.1l6.9-16.5h2v18.8h-1.5v-8.3l0.1-8.2l-0.1,0l-7,16.5h-1.1l-7-16.4l-0.1,0l0.1,8.1v8.3
		h-1.5V39.7H75.8z"/>
</g>
<g>
	<path class="st0" d="M98.6,58.5H97V39.7h1.5V58.5z"/>
</g>
<g>
	<path class="st0" d="M103.8,58.5V39.7h5.5c2.3,0,4.2,0.8,5.7,2.3c1.5,1.5,2.2,3.5,2.2,5.9v2.4c0,2.4-0.7,4.4-2.2,5.9
		c-1.5,1.5-3.4,2.3-5.7,2.3L103.8,58.5L103.8,58.5z M105.4,41v16.1h3.9c1.9,0,3.4-0.6,4.6-1.9s1.8-2.9,1.8-4.9v-2.4
		c0-2-0.6-3.6-1.8-4.9c-1.2-1.3-2.7-1.9-4.6-1.9L105.4,41L105.4,41z"/>
</g>
<g>
	<path class="st0" d="M123,58.5h-1.5V39.7h1.5V58.5z"/>
</g>
<g>
	<path class="st0" d="M138.6,53.3H130l-1.9,5.2h-1.6l7.1-18.8h1.5l7.1,18.8h-1.6L138.6,53.3z M130.5,51.9h7.6l-3.7-10.2h-0.1
		L130.5,51.9z M136.3,35h1.9l0,0.1l-3.2,3.4h-1.4L136.3,35z"/>
	<path class="st0" d="M155.9,41h-6.5v17.5h-1.5V41h-6.5v-1.3h14.5V41z"/>
</g>
<g>
	<path class="st0" d="M160.9,58.5h-1.5V39.7h1.5V58.5z"/>
</g>
<g>
	<path class="st0" d="M179.1,52.6L179.1,52.6c-0.1,2-0.8,3.4-2,4.5c-1.2,1.1-2.8,1.6-4.7,1.6c-2.1,0-3.8-0.8-5.1-2.3
		c-1.3-1.5-1.9-3.5-1.9-5.9v-3.1c0-2.4,0.6-4.3,1.9-5.9c1.3-1.5,3-2.3,5.1-2.3c2,0,3.6,0.5,4.7,1.6c1.2,1.1,1.8,2.5,2,4.5l0,0.1
		h-1.4c-0.2-1.6-0.7-2.7-1.6-3.6s-2.1-1.2-3.7-1.2c-1.6,0-3,0.6-4,1.9c-1,1.3-1.5,2.9-1.5,4.9v3.1c0,2,0.5,3.6,1.5,4.9
		c1,1.3,2.3,1.9,4,1.9c1.6,0,2.8-0.4,3.7-1.2s1.4-2,1.6-3.6H179.1z"/>
	<path class="st0" d="M193.1,53.3h-8.6l-1.9,5.2H181l7.1-18.8h1.5l7.1,18.8h-1.6L193.1,53.3z M185.1,51.9h7.6l-3.7-10.2h-0.1
		L185.1,51.9z"/>
</g>
<g>
	<path class="st0" d="M206,58.5V39.7h5.5c2.3,0,4.2,0.8,5.7,2.3c1.5,1.5,2.2,3.5,2.2,5.9v2.4c0,2.4-0.7,4.4-2.2,5.9
		c-1.5,1.5-3.4,2.3-5.7,2.3L206,58.5L206,58.5z M207.5,41v16.1h3.9c1.9,0,3.4-0.6,4.6-1.9s1.8-2.9,1.8-4.9v-2.4c0-2-0.6-3.6-1.8-4.9
		c-1.2-1.3-2.7-1.9-4.6-1.9L207.5,41L207.5,41z"/>
	<path class="st0" d="M225.2,58.5h-1.5V39.7h1.5V58.5z"/>
</g>
<g>
	<path class="st0" d="M243.8,56.3c-0.4,0.6-1.2,1.2-2.3,1.7c-1.1,0.5-2.5,0.8-4.2,0.8c-2.2,0-4-0.7-5.4-2.2
		c-1.4-1.5-2.1-3.4-2.1-5.8v-3.4c0-2.3,0.7-4.2,2-5.7s3-2.2,5.2-2.2c2,0,3.6,0.5,4.7,1.5s1.8,2.3,2,3.9l0,0.1h-1.4
		c-0.2-1.3-0.8-2.3-1.6-3c-0.8-0.8-2.1-1.2-3.7-1.2c-1.7,0-3,0.6-4.1,1.8s-1.5,2.8-1.5,4.7v3.5c0,2,0.5,3.6,1.6,4.8s2.5,1.9,4.3,1.9
		c1.2,0,2.3-0.2,3.2-0.5c0.9-0.3,1.5-0.7,1.8-1.1v-4.9h-5v-1.3h6.5L243.8,56.3L243.8,56.3z"/>
</g>
<g>
	<path class="st0" d="M250.4,58.5h-1.5V39.7h1.5V58.5z"/>
</g>
<g>
	<path class="st0" d="M267.8,41h-6.5v17.5h-1.5V41h-6.5v-1.3h14.5V41z"/>
	<path class="st0" d="M280,53.3h-8.6l-1.9,5.2h-1.6l7.1-18.8h1.5l7.1,18.8h-1.6L280,53.3z M271.9,51.9h7.6l-3.7-10.2h-0.1
		L271.9,51.9z"/>
	<path class="st0" d="M287.9,57.2h9.3v1.3h-10.8V39.7h1.5V57.2z"/>
</g>
<g>
	<path class="st0" d="M113.4,13.8c-4,3.2-7.6,5.7-10.7,7.5c-3.1,1.8-5.5,2.7-7,2.7c-0.9,0-1.6-0.2-2.2-0.7s-1.4-1.3-2.2-2.7
		c-0.6-1-1.2-1.7-1.7-2.1c-0.5-0.4-1.1-0.6-1.7-0.6c-0.8,0-1.5,0.3-2,0.9c-0.6,0.6-1,1.4-1.3,2.5h-6.3c-2.4,0-4.3-0.7-5.7-2
		c-1.3-1.3-2-3.2-2-5.6c0-2.4,0.7-4.2,2-5.6c1.3-1.3,3.2-2,5.7-2h6.3c0.3,1.1,0.7,1.9,1.3,2.5c0.6,0.6,1.3,0.9,2,0.9
		c0.7,0,1.2-0.2,1.7-0.6c0.5-0.4,1.1-1.1,1.7-2.1c0.8-1.3,1.6-2.2,2.2-2.7c0.6-0.4,1.4-0.7,2.2-0.7c1.5,0,3.9,0.9,7.1,2.7
		C106,8.1,109.5,10.6,113.4,13.8z M104.8,18v-3.6l-4.6,0.1c-0.2,1.1-0.6,1.9-1.1,2.5c-0.5,0.6-1.2,0.8-2,0.8c-1,0-1.8-0.4-2.4-1.1
		c-0.6-0.7-0.9-1.7-0.9-3c0-1.2,0.3-2.2,0.9-2.9s1.4-1.1,2.4-1.1c0.8,0,1.5,0.3,2,0.8c0.5,0.6,0.9,1.4,1.1,2.5l4.6,0.1V9.6
		c-2.2-1.4-4.1-2.5-5.5-3.2c-1.5-0.7-2.6-1-3.4-1c-0.6,0-1.1,0.1-1.4,0.3c-0.4,0.2-0.8,0.7-1.2,1.4c-0.1,0.1-0.2,0.3-0.3,0.5
		c-1.6,2.5-3.3,3.7-5,3.7c-1,0-1.9-0.3-2.6-0.8c-0.7-0.6-1.4-1.4-1.9-2.6h-5c-2.1,0-3.7,0.5-4.7,1.4s-1.5,2.4-1.5,4.4
		c0,2,0.5,3.5,1.5,4.4s2.6,1.4,4.7,1.4h5c0.5-1.2,1.2-2,1.9-2.6c0.7-0.6,1.6-0.8,2.6-0.8c1.7,0,3.5,1.3,5.2,4
		c0.1,0.2,0.2,0.4,0.3,0.5c0.4,0.6,0.7,1,1.1,1.2c0.4,0.2,0.8,0.3,1.3,0.3c0.8,0,1.8-0.3,3.3-1C100.4,20.6,102.4,19.5,104.8,18z"/>
</g>
</svg>
